<?xml version="1.0" encoding="UTF-8"?>
<svg xmlns="http://www.w3.org/2000/svg" xmlns:xlink="http://www.w3.org/1999/xlink" width="810pt" height="809.999993pt" viewBox="0 0 810 809.999993" version="1.2">
<defs>
<clipPath id="clip1">
  <path d="M 29.464844 29.464844 L 780.214844 29.464844 L 780.214844 780.214844 L 29.464844 780.214844 Z M 29.464844 29.464844 "/>
</clipPath>
<clipPath id="clip2">
  <path d="M 163.371094 202 L 611 202 L 611 602 L 163.371094 602 Z M 163.371094 202 "/>
</clipPath>
<clipPath id="clip3">
  <path d="M 163.371094 202 L 611 202 L 611 313 L 163.371094 313 Z M 163.371094 202 "/>
</clipPath>
<clipPath id="clip4">
  <path d="M 225 165.691406 L 240 165.691406 L 240 254 L 225 254 Z M 225 165.691406 "/>
</clipPath>
<clipPath id="clip5">
  <path d="M 302 165.691406 L 318 165.691406 L 318 254 L 302 254 Z M 302 165.691406 "/>
</clipPath>
<clipPath id="clip6">
  <path d="M 379 165.691406 L 395 165.691406 L 395 254 L 379 254 Z M 379 165.691406 "/>
</clipPath>
<clipPath id="clip7">
  <path d="M 457 165.691406 L 472 165.691406 L 472 254 L 457 254 Z M 457 165.691406 "/>
</clipPath>
<clipPath id="clip8">
  <path d="M 534 165.691406 L 550 165.691406 L 550 254 L 534 254 Z M 534 165.691406 "/>
</clipPath>
<clipPath id="clip9">
  <path d="M 411 408 L 666.621094 408 L 666.621094 663.445312 L 411 663.445312 Z M 411 408 "/>
</clipPath>
</defs>
<g id="surface1">
<path style=" stroke:none;fill-rule:nonzero;fill:rgb(100%,100%,100%);fill-opacity:1;" d="M 755.339844 404.839844 C 755.339844 410.574219 755.199219 416.308594 754.917969 422.035156 C 754.636719 427.765625 754.214844 433.484375 753.652344 439.195312 C 753.089844 444.902344 752.390625 450.59375 751.546875 456.269531 C 750.707031 461.941406 749.726562 467.59375 748.605469 473.21875 C 747.488281 478.84375 746.230469 484.4375 744.835938 490.003906 C 743.441406 495.566406 741.914062 501.09375 740.25 506.582031 C 738.582031 512.074219 736.785156 517.519531 734.851562 522.917969 C 732.917969 528.320312 730.855469 533.671875 728.660156 538.96875 C 726.464844 544.269531 724.140625 549.511719 721.6875 554.699219 C 719.234375 559.882812 716.65625 565.003906 713.953125 570.0625 C 711.25 575.121094 708.421875 580.113281 705.472656 585.03125 C 702.523438 589.953125 699.457031 594.796875 696.269531 599.566406 C 693.082031 604.335938 689.78125 609.023438 686.363281 613.632812 C 682.949219 618.238281 679.417969 622.761719 675.78125 627.195312 C 672.140625 631.628906 668.394531 635.972656 664.542969 640.222656 C 660.691406 644.472656 656.738281 648.625 652.679688 652.679688 C 648.625 656.738281 644.472656 660.691406 640.222656 664.542969 C 635.972656 668.394531 631.628906 672.140625 627.195312 675.78125 C 622.761719 679.417969 618.238281 682.949219 613.632812 686.363281 C 609.023438 689.78125 604.335938 693.082031 599.566406 696.269531 C 594.796875 699.457031 589.953125 702.523438 585.03125 705.472656 C 580.113281 708.421875 575.121094 711.25 570.0625 713.953125 C 565.003906 716.65625 559.882812 719.234375 554.699219 721.6875 C 549.511719 724.140625 544.269531 726.464844 538.96875 728.660156 C 533.671875 730.855469 528.320312 732.917969 522.917969 734.851562 C 517.519531 736.785156 512.074219 738.582031 506.582031 740.25 C 501.09375 741.914062 495.566406 743.441406 490.003906 744.835938 C 484.4375 746.230469 478.84375 747.488281 473.21875 748.605469 C 467.59375 749.726562 461.941406 750.707031 456.269531 751.546875 C 450.59375 752.390625 444.902344 753.089844 439.195312 753.652344 C 433.484375 754.214844 427.765625 754.636719 422.035156 754.917969 C 416.308594 755.199219 410.574219 755.339844 404.839844 755.339844 C 399.101562 755.339844 393.371094 755.199219 387.640625 754.917969 C 381.910156 754.636719 376.191406 754.214844 370.484375 753.652344 C 364.773438 753.089844 359.082031 752.390625 353.410156 751.546875 C 347.734375 750.707031 342.085938 749.726562 336.457031 748.605469 C 330.832031 747.488281 325.238281 746.230469 319.671875 744.835938 C 314.109375 743.441406 308.582031 741.914062 303.09375 740.25 C 297.601562 738.582031 292.160156 736.785156 286.757812 734.851562 C 281.355469 732.917969 276.007812 730.855469 270.707031 728.660156 C 265.40625 726.464844 260.164062 724.140625 254.980469 721.6875 C 249.792969 719.234375 244.671875 716.65625 239.613281 713.953125 C 234.554688 711.25 229.5625 708.421875 224.644531 705.472656 C 219.722656 702.523438 214.878906 699.457031 210.109375 696.269531 C 205.339844 693.082031 200.652344 689.78125 196.042969 686.363281 C 191.4375 682.949219 186.914062 679.417969 182.480469 675.78125 C 178.046875 672.140625 173.707031 668.394531 169.453125 664.542969 C 165.203125 660.691406 161.050781 656.738281 156.996094 652.679688 C 152.9375 648.625 148.984375 644.472656 145.132812 640.222656 C 141.28125 635.972656 137.535156 631.628906 133.894531 627.195312 C 130.257812 622.761719 126.730469 618.238281 123.3125 613.632812 C 119.894531 609.023438 116.59375 604.335938 113.40625 599.566406 C 110.21875 594.796875 107.152344 589.953125 104.203125 585.03125 C 101.253906 580.113281 98.425781 575.121094 95.722656 570.0625 C 93.019531 565.003906 90.441406 559.882812 87.988281 554.699219 C 85.535156 549.511719 83.210938 544.269531 81.015625 538.96875 C 78.820312 533.671875 76.757812 528.320312 74.824219 522.917969 C 72.890625 517.519531 71.09375 512.074219 69.429688 506.582031 C 67.761719 501.09375 66.234375 495.566406 64.839844 490.003906 C 63.445312 484.4375 62.191406 478.84375 61.070312 473.21875 C 59.953125 467.59375 58.972656 461.941406 58.128906 456.269531 C 57.289062 450.59375 56.585938 444.902344 56.023438 439.195312 C 55.460938 433.484375 55.039062 427.765625 54.757812 422.035156 C 54.476562 416.308594 54.335938 410.574219 54.335938 404.839844 C 54.335938 399.101562 54.476562 393.371094 54.757812 387.640625 C 55.039062 381.910156 55.460938 376.191406 56.023438 370.484375 C 56.585938 364.773438 57.289062 359.082031 58.128906 353.410156 C 58.972656 347.734375 59.953125 342.085938 61.070312 336.457031 C 62.191406 330.832031 63.445312 325.238281 64.839844 319.671875 C 66.234375 314.109375 67.761719 308.582031 69.429688 303.09375 C 71.09375 297.601562 72.890625 292.160156 74.824219 286.757812 C 76.757812 281.355469 78.820312 276.007812 81.015625 270.707031 C 83.210938 265.40625 85.535156 260.164062 87.988281 254.980469 C 90.441406 249.792969 93.019531 244.671875 95.722656 239.613281 C 98.425781 234.554688 101.253906 229.5625 104.203125 224.644531 C 107.152344 219.722656 110.21875 214.878906 113.40625 210.109375 C 116.59375 205.339844 119.894531 200.652344 123.3125 196.042969 C 126.730469 191.4375 130.257812 186.914062 133.894531 182.480469 C 137.535156 178.046875 141.28125 173.707031 145.132812 169.457031 C 148.984375 165.203125 152.9375 161.050781 156.996094 156.996094 C 161.050781 152.9375 165.203125 148.984375 169.453125 145.132812 C 173.707031 141.28125 178.046875 137.535156 182.480469 133.894531 C 186.914062 130.257812 191.4375 126.730469 196.042969 123.3125 C 200.652344 119.894531 205.339844 116.59375 210.109375 113.40625 C 214.878906 110.21875 219.722656 107.152344 224.644531 104.203125 C 229.5625 101.253906 234.554688 98.425781 239.613281 95.722656 C 244.671875 93.019531 249.792969 90.441406 254.980469 87.988281 C 260.164062 85.535156 265.40625 83.210938 270.707031 81.015625 C 276.007812 78.820312 281.355469 76.757812 286.757812 74.824219 C 292.160156 72.890625 297.601562 71.09375 303.09375 69.429688 C 308.582031 67.761719 314.109375 66.234375 319.671875 64.839844 C 325.238281 63.445312 330.832031 62.191406 336.457031 61.070312 C 342.085938 59.953125 347.734375 58.972656 353.410156 58.128906 C 359.082031 57.289062 364.773438 56.585938 370.484375 56.023438 C 376.191406 55.460938 381.910156 55.039062 387.640625 54.757812 C 393.371094 54.476562 399.101562 54.335938 404.839844 54.335938 C 410.574219 54.335938 416.308594 54.476562 422.035156 54.757812 C 427.765625 55.039062 433.484375 55.460938 439.195312 56.023438 C 444.902344 56.585938 450.59375 57.289062 456.269531 58.128906 C 461.941406 58.972656 467.59375 59.953125 473.21875 61.070312 C 478.84375 62.191406 484.4375 63.445312 490.003906 64.839844 C 495.566406 66.234375 501.09375 67.761719 506.582031 69.429688 C 512.074219 71.09375 517.519531 72.890625 522.917969 74.824219 C 528.320312 76.757812 533.671875 78.820312 538.96875 81.015625 C 544.269531 83.210938 549.511719 85.535156 554.699219 87.988281 C 559.882812 90.441406 565.003906 93.019531 570.0625 95.722656 C 575.121094 98.425781 580.113281 101.253906 585.03125 104.203125 C 589.953125 107.152344 594.796875 110.21875 599.566406 113.40625 C 604.335938 116.59375 609.023438 119.894531 613.632812 123.3125 C 618.238281 126.730469 622.761719 130.257812 627.195312 133.894531 C 631.628906 137.535156 635.972656 141.28125 640.222656 145.132812 C 644.472656 148.984375 648.625 152.9375 652.679688 156.996094 C 656.738281 161.050781 660.691406 165.203125 664.542969 169.457031 C 668.394531 173.707031 672.140625 178.046875 675.78125 182.480469 C 679.417969 186.914062 682.949219 191.4375 686.363281 196.042969 C 689.78125 200.652344 693.082031 205.339844 696.269531 210.109375 C 699.457031 214.878906 702.523438 219.722656 705.472656 224.644531 C 708.421875 229.5625 711.25 234.554688 713.953125 239.613281 C 716.65625 244.671875 719.234375 249.792969 721.6875 254.980469 C 724.140625 260.164062 726.464844 265.40625 728.660156 270.707031 C 730.855469 276.007812 732.917969 281.355469 734.851562 286.757812 C 736.785156 292.160156 738.582031 297.601562 740.25 303.09375 C 741.914062 308.582031 743.441406 314.109375 744.835938 319.671875 C 746.230469 325.238281 747.488281 330.832031 748.605469 336.457031 C 749.726562 342.085938 750.707031 347.734375 751.546875 353.410156 C 752.390625 359.082031 753.089844 364.773438 753.652344 370.484375 C 754.214844 376.191406 754.636719 381.910156 754.917969 387.640625 C 755.199219 393.371094 755.339844 399.101562 755.339844 404.839844 Z M 755.339844 404.839844 "/>
<g clip-path="url(#clip1)" clip-rule="nonzero">
<path style=" stroke:none;fill-rule:nonzero;fill:rgb(0%,0%,0%);fill-opacity:1;" d="M 405.234375 780.207031 C 387.527344 780.207031 369.566406 778.945312 351.894531 776.421875 C 147.03125 747.242188 4.074219 556.820312 33.230469 351.925781 C 59.402344 168.105469 218.960938 29.472656 404.367188 29.472656 C 422.097656 29.472656 440.070312 30.753906 457.730469 33.253906 C 662.617188 62.453125 805.597656 252.878906 776.429688 457.757812 C 750.242188 641.59375 590.664062 780.207031 405.234375 780.207031 Z M 404.367188 79.15625 C 243.523438 79.15625 105.144531 199.433594 82.429688 358.9375 C 57.128906 536.699219 181.152344 701.933594 358.898438 727.261719 C 374.253906 729.449219 389.851562 730.550781 405.234375 730.550781 C 566.09375 730.550781 704.53125 610.265625 727.246094 450.746094 C 752.539062 273 628.5 107.773438 450.730469 82.4375 C 435.363281 80.242188 419.792969 79.15625 404.367188 79.15625 Z M 404.367188 79.15625 "/>
</g>
<g clip-path="url(#clip2)" clip-rule="nonzero">
<path style=" stroke:none;fill-rule:nonzero;fill:rgb(0.389099%,9.799194%,18.818665%);fill-opacity:1;" d="M 177.953125 586.496094 L 596.265625 586.496094 L 596.265625 217.039062 L 177.953125 217.039062 Z M 603.558594 601.054688 L 170.660156 601.054688 C 166.632812 601.054688 163.367188 597.792969 163.367188 593.777344 L 163.367188 209.761719 C 163.367188 205.742188 166.632812 202.484375 170.660156 202.484375 L 603.558594 202.484375 C 607.589844 202.484375 610.855469 205.742188 610.855469 209.761719 L 610.855469 593.777344 C 610.855469 597.792969 607.589844 601.054688 603.558594 601.054688 "/>
</g>
<path style=" stroke:none;fill-rule:nonzero;fill:rgb(93.728638%,18.818665%,14.898682%);fill-opacity:1;" d="M 603.5625 305.597656 L 603.5625 209.761719 L 170.660156 209.761719 L 170.660156 305.597656 L 603.5625 305.597656 "/>
<g clip-path="url(#clip3)" clip-rule="nonzero">
<path style=" stroke:none;fill-rule:nonzero;fill:rgb(0.389099%,9.799194%,18.818665%);fill-opacity:1;" d="M 177.953125 298.324219 L 596.265625 298.324219 L 596.265625 217.039062 L 177.953125 217.039062 Z M 603.558594 312.878906 L 170.660156 312.878906 C 166.632812 312.878906 163.367188 309.621094 163.367188 305.601562 L 163.367188 209.761719 C 163.367188 205.742188 166.632812 202.484375 170.660156 202.484375 L 603.558594 202.484375 C 607.589844 202.484375 610.855469 205.742188 610.855469 209.761719 L 610.855469 305.601562 C 610.855469 309.621094 607.589844 312.878906 603.558594 312.878906 "/>
</g>
<g clip-path="url(#clip4)" clip-rule="nonzero">
<path style=" stroke:none;fill-rule:nonzero;fill:rgb(0.389099%,9.799194%,18.818665%);fill-opacity:1;" d="M 232.394531 253.792969 C 228.367188 253.792969 225.097656 250.53125 225.097656 246.515625 L 225.097656 173.003906 C 225.097656 168.988281 228.367188 165.726562 232.394531 165.726562 C 236.421875 165.726562 239.6875 168.988281 239.6875 173.003906 L 239.6875 246.515625 C 239.6875 250.53125 236.421875 253.792969 232.394531 253.792969 "/>
</g>
<g clip-path="url(#clip5)" clip-rule="nonzero">
<path style=" stroke:none;fill-rule:nonzero;fill:rgb(0.389099%,9.799194%,18.818665%);fill-opacity:1;" d="M 309.75 253.792969 C 305.722656 253.792969 302.457031 250.53125 302.457031 246.515625 L 302.457031 173.003906 C 302.457031 168.988281 305.722656 165.726562 309.75 165.726562 C 313.78125 165.726562 317.046875 168.988281 317.046875 173.003906 L 317.046875 246.515625 C 317.046875 250.53125 313.78125 253.792969 309.75 253.792969 "/>
</g>
<g clip-path="url(#clip6)" clip-rule="nonzero">
<path style=" stroke:none;fill-rule:nonzero;fill:rgb(0.389099%,9.799194%,18.818665%);fill-opacity:1;" d="M 387.109375 253.792969 C 383.082031 253.792969 379.816406 250.53125 379.816406 246.515625 L 379.816406 173.003906 C 379.816406 168.988281 383.082031 165.726562 387.109375 165.726562 C 391.140625 165.726562 394.40625 168.988281 394.40625 173.003906 L 394.40625 246.515625 C 394.40625 250.53125 391.140625 253.792969 387.109375 253.792969 "/>
</g>
<g clip-path="url(#clip7)" clip-rule="nonzero">
<path style=" stroke:none;fill-rule:nonzero;fill:rgb(0.389099%,9.799194%,18.818665%);fill-opacity:1;" d="M 464.46875 253.792969 C 460.4375 253.792969 457.171875 250.53125 457.171875 246.515625 L 457.171875 173.003906 C 457.171875 168.988281 460.4375 165.726562 464.46875 165.726562 C 468.496094 165.726562 471.761719 168.988281 471.761719 173.003906 L 471.761719 246.515625 C 471.761719 250.53125 468.496094 253.792969 464.46875 253.792969 "/>
</g>
<g clip-path="url(#clip8)" clip-rule="nonzero">
<path style=" stroke:none;fill-rule:nonzero;fill:rgb(0.389099%,9.799194%,18.818665%);fill-opacity:1;" d="M 541.828125 253.792969 C 537.800781 253.792969 534.535156 250.53125 534.535156 246.515625 L 534.535156 173.003906 C 534.535156 168.988281 537.800781 165.726562 541.828125 165.726562 C 545.855469 165.726562 549.121094 168.988281 549.121094 173.003906 L 549.121094 246.515625 C 549.121094 250.53125 545.855469 253.792969 541.828125 253.792969 "/>
</g>
<path style=" stroke:none;fill-rule:nonzero;fill:rgb(0.389099%,9.799194%,18.818665%);fill-opacity:1;" d="M 282.402344 381.296875 L 235.519531 381.296875 C 231.492188 381.296875 228.226562 378.039062 228.226562 374.019531 C 228.226562 370 231.492188 366.742188 235.519531 366.742188 L 282.402344 366.742188 C 286.429688 366.742188 289.699219 370 289.699219 374.019531 C 289.699219 378.039062 286.429688 381.296875 282.402344 381.296875 "/>
<path style=" stroke:none;fill-rule:nonzero;fill:rgb(0.389099%,9.799194%,18.818665%);fill-opacity:1;" d="M 367.835938 381.296875 L 320.953125 381.296875 C 316.921875 381.296875 313.65625 378.039062 313.65625 374.019531 C 313.65625 370 316.921875 366.742188 320.953125 366.742188 L 367.835938 366.742188 C 371.863281 366.742188 375.128906 370 375.128906 374.019531 C 375.128906 378.039062 371.863281 381.296875 367.835938 381.296875 "/>
<path style=" stroke:none;fill-rule:nonzero;fill:rgb(0.389099%,9.799194%,18.818665%);fill-opacity:1;" d="M 453.269531 381.296875 L 406.386719 381.296875 C 402.355469 381.296875 399.089844 378.039062 399.089844 374.019531 C 399.089844 370 402.355469 366.742188 406.386719 366.742188 L 453.269531 366.742188 C 457.296875 366.742188 460.5625 370 460.5625 374.019531 C 460.5625 378.039062 457.296875 381.296875 453.269531 381.296875 "/>
<path style=" stroke:none;fill-rule:nonzero;fill:rgb(0.389099%,9.799194%,18.818665%);fill-opacity:1;" d="M 538.699219 381.296875 L 491.816406 381.296875 C 487.789062 381.296875 484.523438 378.039062 484.523438 374.019531 C 484.523438 370 487.789062 366.742188 491.816406 366.742188 L 538.699219 366.742188 C 542.726562 366.742188 545.996094 370 545.996094 374.019531 C 545.996094 378.039062 542.726562 381.296875 538.699219 381.296875 "/>
<path style=" stroke:none;fill-rule:nonzero;fill:rgb(0.389099%,9.799194%,18.818665%);fill-opacity:1;" d="M 282.402344 434.019531 L 235.519531 434.019531 C 231.492188 434.019531 228.226562 430.757812 228.226562 426.738281 C 228.226562 422.71875 231.492188 419.460938 235.519531 419.460938 L 282.402344 419.460938 C 286.429688 419.460938 289.699219 422.71875 289.699219 426.738281 C 289.699219 430.757812 286.429688 434.019531 282.402344 434.019531 "/>
<path style=" stroke:none;fill-rule:nonzero;fill:rgb(0.389099%,9.799194%,18.818665%);fill-opacity:1;" d="M 367.835938 434.019531 L 320.953125 434.019531 C 316.921875 434.019531 313.65625 430.757812 313.65625 426.738281 C 313.65625 422.71875 316.921875 419.460938 320.953125 419.460938 L 367.835938 419.460938 C 371.863281 419.460938 375.128906 422.71875 375.128906 426.738281 C 375.128906 430.757812 371.863281 434.019531 367.835938 434.019531 "/>
<path style=" stroke:none;fill-rule:nonzero;fill:rgb(0.389099%,9.799194%,18.818665%);fill-opacity:1;" d="M 453.269531 434.019531 L 406.386719 434.019531 C 402.355469 434.019531 399.089844 430.757812 399.089844 426.738281 C 399.089844 422.71875 402.355469 419.460938 406.386719 419.460938 L 453.269531 419.460938 C 457.296875 419.460938 460.5625 422.71875 460.5625 426.738281 C 460.5625 430.757812 457.296875 434.019531 453.269531 434.019531 "/>
<path style=" stroke:none;fill-rule:nonzero;fill:rgb(0.389099%,9.799194%,18.818665%);fill-opacity:1;" d="M 538.699219 434.019531 L 491.816406 434.019531 C 487.789062 434.019531 484.523438 430.757812 484.523438 426.738281 C 484.523438 422.71875 487.789062 419.460938 491.816406 419.460938 L 538.699219 419.460938 C 542.726562 419.460938 545.996094 422.71875 545.996094 426.738281 C 545.996094 430.757812 542.726562 434.019531 538.699219 434.019531 "/>
<path style=" stroke:none;fill-rule:nonzero;fill:rgb(0.389099%,9.799194%,18.818665%);fill-opacity:1;" d="M 282.402344 486.734375 L 235.519531 486.734375 C 231.492188 486.734375 228.226562 483.476562 228.226562 479.457031 C 228.226562 475.4375 231.492188 472.179688 235.519531 472.179688 L 282.402344 472.179688 C 286.429688 472.179688 289.699219 475.4375 289.699219 479.457031 C 289.699219 483.476562 286.429688 486.734375 282.402344 486.734375 "/>
<path style=" stroke:none;fill-rule:nonzero;fill:rgb(0.389099%,9.799194%,18.818665%);fill-opacity:1;" d="M 367.835938 486.734375 L 320.953125 486.734375 C 316.921875 486.734375 313.65625 483.476562 313.65625 479.457031 C 313.65625 475.4375 316.921875 472.179688 320.953125 472.179688 L 367.835938 472.179688 C 371.863281 472.179688 375.128906 475.4375 375.128906 479.457031 C 375.128906 483.476562 371.863281 486.734375 367.835938 486.734375 "/>
<path style=" stroke:none;fill-rule:nonzero;fill:rgb(0.389099%,9.799194%,18.818665%);fill-opacity:1;" d="M 453.269531 486.734375 L 406.386719 486.734375 C 402.355469 486.734375 399.089844 483.476562 399.089844 479.457031 C 399.089844 475.4375 402.355469 472.179688 406.386719 472.179688 L 453.269531 472.179688 C 457.296875 472.179688 460.5625 475.4375 460.5625 479.457031 C 460.5625 483.476562 457.296875 486.734375 453.269531 486.734375 "/>
<path style=" stroke:none;fill-rule:nonzero;fill:rgb(0.389099%,9.799194%,18.818665%);fill-opacity:1;" d="M 538.699219 486.734375 L 491.816406 486.734375 C 487.789062 486.734375 484.523438 483.476562 484.523438 479.457031 C 484.523438 475.4375 487.789062 472.179688 491.816406 472.179688 L 538.699219 472.179688 C 542.726562 472.179688 545.996094 475.4375 545.996094 479.457031 C 545.996094 483.476562 542.726562 486.734375 538.699219 486.734375 "/>
<path style=" stroke:none;fill-rule:nonzero;fill:rgb(0.389099%,9.799194%,18.818665%);fill-opacity:1;" d="M 282.402344 539.457031 L 235.519531 539.457031 C 231.492188 539.457031 228.226562 536.195312 228.226562 532.175781 C 228.226562 528.160156 231.492188 524.898438 235.519531 524.898438 L 282.402344 524.898438 C 286.429688 524.898438 289.699219 528.160156 289.699219 532.175781 C 289.699219 536.195312 286.429688 539.457031 282.402344 539.457031 "/>
<path style=" stroke:none;fill-rule:nonzero;fill:rgb(0.389099%,9.799194%,18.818665%);fill-opacity:1;" d="M 367.835938 539.457031 L 320.953125 539.457031 C 316.921875 539.457031 313.65625 536.195312 313.65625 532.175781 C 313.65625 528.160156 316.921875 524.898438 320.953125 524.898438 L 367.835938 524.898438 C 371.863281 524.898438 375.128906 528.160156 375.128906 532.175781 C 375.128906 536.195312 371.863281 539.457031 367.835938 539.457031 "/>
<path style=" stroke:none;fill-rule:nonzero;fill:rgb(0.389099%,9.799194%,18.818665%);fill-opacity:1;" d="M 453.269531 539.457031 L 406.386719 539.457031 C 402.355469 539.457031 399.089844 536.195312 399.089844 532.175781 C 399.089844 528.160156 402.355469 524.898438 406.386719 524.898438 L 453.269531 524.898438 C 457.296875 524.898438 460.5625 528.160156 460.5625 532.175781 C 460.5625 536.195312 457.296875 539.457031 453.269531 539.457031 "/>
<path style=" stroke:none;fill-rule:nonzero;fill:rgb(0.389099%,9.799194%,18.818665%);fill-opacity:1;" d="M 538.699219 539.457031 L 491.816406 539.457031 C 487.789062 539.457031 484.523438 536.195312 484.523438 532.175781 C 484.523438 528.160156 487.789062 524.898438 491.816406 524.898438 L 538.699219 524.898438 C 542.726562 524.898438 545.996094 528.160156 545.996094 532.175781 C 545.996094 536.195312 542.726562 539.457031 538.699219 539.457031 "/>
<g clip-path="url(#clip9)" clip-rule="nonzero">
<path style=" stroke:none;fill-rule:nonzero;fill:rgb(93.728638%,18.818665%,14.898682%);fill-opacity:1;" d="M 666.910156 536.171875 C 666.910156 606.453125 609.808594 663.429688 539.375 663.429688 C 468.9375 663.429688 411.84375 606.453125 411.84375 536.171875 C 411.84375 465.886719 468.9375 408.910156 539.375 408.910156 C 609.808594 408.910156 666.910156 465.886719 666.910156 536.171875 "/>
</g>
<path style=" stroke:none;fill-rule:nonzero;fill:rgb(100%,100%,100%);fill-opacity:1;" d="M 539.375 543.453125 C 535.34375 543.453125 532.082031 540.191406 532.082031 536.171875 L 532.082031 484.761719 C 532.082031 480.738281 535.34375 477.480469 539.375 477.480469 C 543.402344 477.480469 546.671875 480.738281 546.671875 484.761719 L 546.671875 536.171875 C 546.671875 540.191406 543.402344 543.453125 539.375 543.453125 "/>
<path style=" stroke:none;fill-rule:nonzero;fill:rgb(100%,100%,100%);fill-opacity:1;" d="M 564.199219 543.453125 L 539.375 543.453125 C 535.34375 543.453125 532.082031 540.191406 532.082031 536.171875 C 532.082031 532.152344 535.34375 528.894531 539.375 528.894531 L 564.199219 528.894531 C 568.230469 528.894531 571.496094 532.152344 571.496094 536.171875 C 571.496094 540.191406 568.230469 543.453125 564.199219 543.453125 "/>
</g>
</svg>
