<?xml version="1.0" encoding="UTF-8"?>
<svg xmlns="http://www.w3.org/2000/svg" xmlns:xlink="http://www.w3.org/1999/xlink" width="810pt" height="809.999993pt" viewBox="0 0 810 809.999993" version="1.2">
<defs>
<clipPath id="clip1">
  <path d="M 29.464844 29.464844 L 780.214844 29.464844 L 780.214844 780.214844 L 29.464844 780.214844 Z M 29.464844 29.464844 "/>
</clipPath>
<clipPath id="clip2">
  <path d="M 177 267 L 645 267 L 645 675.175781 L 177 675.175781 Z M 177 267 "/>
</clipPath>
<clipPath id="clip3">
  <path d="M 177 441 L 457 441 L 457 675.175781 L 177 675.175781 Z M 177 441 "/>
</clipPath>
<clipPath id="clip4">
  <path d="M 140 135.175781 L 472 135.175781 L 472 419 L 140 419 Z M 140 135.175781 "/>
</clipPath>
<clipPath id="clip5">
  <path d="M 119.46875 366 L 251 366 L 251 481 L 119.46875 481 Z M 119.46875 366 "/>
</clipPath>
<clipPath id="clip6">
  <path d="M 616 481 L 653 481 L 653 548 L 616 548 Z M 616 481 "/>
</clipPath>
<clipPath id="clip7">
  <path d="M 632.636719 547.894531 C 627.304688 547.894531 621.746094 547.304688 616.125 546.242188 L 623.292969 481.011719 C 632.347656 486.671875 642.019531 491.089844 652.003906 493.378906 L 643.910156 546.910156 C 640.304688 547.582031 636.53125 547.894531 632.636719 547.894531 "/>
</clipPath>
</defs>
<g id="surface1">
<path style=" stroke:none;fill-rule:nonzero;fill:rgb(100%,100%,100%);fill-opacity:1;" d="M 755.339844 404.839844 C 755.339844 410.574219 755.199219 416.308594 754.917969 422.035156 C 754.636719 427.765625 754.214844 433.484375 753.652344 439.195312 C 753.089844 444.902344 752.390625 450.59375 751.546875 456.269531 C 750.707031 461.941406 749.726562 467.59375 748.605469 473.21875 C 747.488281 478.84375 746.230469 484.4375 744.835938 490.003906 C 743.441406 495.566406 741.914062 501.09375 740.25 506.582031 C 738.582031 512.074219 736.785156 517.519531 734.851562 522.917969 C 732.917969 528.320312 730.855469 533.671875 728.660156 538.96875 C 726.464844 544.269531 724.140625 549.511719 721.6875 554.699219 C 719.234375 559.882812 716.65625 565.003906 713.953125 570.0625 C 711.25 575.121094 708.421875 580.113281 705.472656 585.03125 C 702.523438 589.953125 699.457031 594.796875 696.269531 599.566406 C 693.082031 604.335938 689.78125 609.023438 686.363281 613.632812 C 682.949219 618.238281 679.417969 622.761719 675.78125 627.195312 C 672.140625 631.628906 668.394531 635.972656 664.542969 640.222656 C 660.691406 644.472656 656.738281 648.625 652.679688 652.679688 C 648.625 656.738281 644.472656 660.691406 640.222656 664.542969 C 635.972656 668.394531 631.628906 672.140625 627.195312 675.78125 C 622.761719 679.417969 618.238281 682.949219 613.632812 686.363281 C 609.023438 689.78125 604.335938 693.082031 599.566406 696.269531 C 594.796875 699.457031 589.953125 702.523438 585.03125 705.472656 C 580.113281 708.421875 575.121094 711.25 570.0625 713.953125 C 565.003906 716.65625 559.882812 719.234375 554.699219 721.6875 C 549.511719 724.140625 544.269531 726.464844 538.96875 728.660156 C 533.671875 730.855469 528.320312 732.917969 522.917969 734.851562 C 517.519531 736.785156 512.074219 738.582031 506.582031 740.25 C 501.09375 741.914062 495.566406 743.441406 490.003906 744.835938 C 484.4375 746.230469 478.84375 747.488281 473.21875 748.605469 C 467.59375 749.726562 461.941406 750.707031 456.269531 751.546875 C 450.59375 752.390625 444.902344 753.089844 439.195312 753.652344 C 433.484375 754.214844 427.765625 754.636719 422.035156 754.917969 C 416.308594 755.199219 410.574219 755.339844 404.839844 755.339844 C 399.101562 755.339844 393.371094 755.199219 387.640625 754.917969 C 381.910156 754.636719 376.191406 754.214844 370.484375 753.652344 C 364.773438 753.089844 359.082031 752.390625 353.410156 751.546875 C 347.734375 750.707031 342.085938 749.726562 336.457031 748.605469 C 330.832031 747.488281 325.238281 746.230469 319.671875 744.835938 C 314.109375 743.441406 308.582031 741.914062 303.09375 740.25 C 297.601562 738.582031 292.160156 736.785156 286.757812 734.851562 C 281.355469 732.917969 276.007812 730.855469 270.707031 728.660156 C 265.40625 726.464844 260.164062 724.140625 254.980469 721.6875 C 249.792969 719.234375 244.671875 716.65625 239.613281 713.953125 C 234.554688 711.25 229.5625 708.421875 224.644531 705.472656 C 219.722656 702.523438 214.878906 699.457031 210.109375 696.269531 C 205.339844 693.082031 200.652344 689.78125 196.042969 686.363281 C 191.4375 682.949219 186.914062 679.417969 182.480469 675.78125 C 178.046875 672.140625 173.707031 668.394531 169.453125 664.542969 C 165.203125 660.691406 161.050781 656.738281 156.996094 652.679688 C 152.9375 648.625 148.984375 644.472656 145.132812 640.222656 C 141.28125 635.972656 137.535156 631.628906 133.894531 627.195312 C 130.257812 622.761719 126.730469 618.238281 123.3125 613.632812 C 119.894531 609.023438 116.59375 604.335938 113.40625 599.566406 C 110.21875 594.796875 107.152344 589.953125 104.203125 585.03125 C 101.253906 580.113281 98.425781 575.121094 95.722656 570.0625 C 93.019531 565.003906 90.441406 559.882812 87.988281 554.699219 C 85.535156 549.511719 83.210938 544.269531 81.015625 538.96875 C 78.820312 533.671875 76.757812 528.320312 74.824219 522.917969 C 72.890625 517.519531 71.09375 512.074219 69.429688 506.582031 C 67.761719 501.09375 66.234375 495.566406 64.839844 490.003906 C 63.445312 484.4375 62.191406 478.84375 61.070312 473.21875 C 59.953125 467.59375 58.972656 461.941406 58.128906 456.269531 C 57.289062 450.59375 56.585938 444.902344 56.023438 439.195312 C 55.460938 433.484375 55.039062 427.765625 54.757812 422.035156 C 54.476562 416.308594 54.335938 410.574219 54.335938 404.839844 C 54.335938 399.101562 54.476562 393.371094 54.757812 387.640625 C 55.039062 381.910156 55.460938 376.191406 56.023438 370.484375 C 56.585938 364.773438 57.289062 359.082031 58.128906 353.410156 C 58.972656 347.734375 59.953125 342.085938 61.070312 336.457031 C 62.191406 330.832031 63.445312 325.238281 64.839844 319.671875 C 66.234375 314.109375 67.761719 308.582031 69.429688 303.09375 C 71.09375 297.601562 72.890625 292.160156 74.824219 286.757812 C 76.757812 281.355469 78.820312 276.007812 81.015625 270.707031 C 83.210938 265.40625 85.535156 260.164062 87.988281 254.980469 C 90.441406 249.792969 93.019531 244.671875 95.722656 239.613281 C 98.425781 234.554688 101.253906 229.5625 104.203125 224.644531 C 107.152344 219.722656 110.21875 214.878906 113.40625 210.109375 C 116.59375 205.339844 119.894531 200.652344 123.3125 196.042969 C 126.730469 191.4375 130.257812 186.914062 133.894531 182.480469 C 137.535156 178.046875 141.28125 173.707031 145.132812 169.457031 C 148.984375 165.203125 152.9375 161.050781 156.996094 156.996094 C 161.050781 152.9375 165.203125 148.984375 169.453125 145.132812 C 173.707031 141.28125 178.046875 137.535156 182.480469 133.894531 C 186.914062 130.257812 191.4375 126.730469 196.042969 123.3125 C 200.652344 119.894531 205.339844 116.59375 210.109375 113.40625 C 214.878906 110.21875 219.722656 107.152344 224.644531 104.203125 C 229.5625 101.253906 234.554688 98.425781 239.613281 95.722656 C 244.671875 93.019531 249.792969 90.441406 254.980469 87.988281 C 260.164062 85.535156 265.40625 83.210938 270.707031 81.015625 C 276.007812 78.820312 281.355469 76.757812 286.757812 74.824219 C 292.160156 72.890625 297.601562 71.09375 303.09375 69.429688 C 308.582031 67.761719 314.109375 66.234375 319.671875 64.839844 C 325.238281 63.445312 330.832031 62.191406 336.457031 61.070312 C 342.085938 59.953125 347.734375 58.972656 353.410156 58.128906 C 359.082031 57.289062 364.773438 56.585938 370.484375 56.023438 C 376.191406 55.460938 381.910156 55.039062 387.640625 54.757812 C 393.371094 54.476562 399.101562 54.335938 404.839844 54.335938 C 410.574219 54.335938 416.308594 54.476562 422.035156 54.757812 C 427.765625 55.039062 433.484375 55.460938 439.195312 56.023438 C 444.902344 56.585938 450.59375 57.289062 456.269531 58.128906 C 461.941406 58.972656 467.59375 59.953125 473.21875 61.070312 C 478.84375 62.191406 484.4375 63.445312 490.003906 64.839844 C 495.566406 66.234375 501.09375 67.761719 506.582031 69.429688 C 512.074219 71.09375 517.519531 72.890625 522.917969 74.824219 C 528.320312 76.757812 533.671875 78.820312 538.96875 81.015625 C 544.269531 83.210938 549.511719 85.535156 554.699219 87.988281 C 559.882812 90.441406 565.003906 93.019531 570.0625 95.722656 C 575.121094 98.425781 580.113281 101.253906 585.03125 104.203125 C 589.953125 107.152344 594.796875 110.21875 599.566406 113.40625 C 604.335938 116.59375 609.023438 119.894531 613.632812 123.3125 C 618.238281 126.730469 622.761719 130.257812 627.195312 133.894531 C 631.628906 137.535156 635.972656 141.28125 640.222656 145.132812 C 644.472656 148.984375 648.625 152.9375 652.679688 156.996094 C 656.738281 161.050781 660.691406 165.203125 664.542969 169.457031 C 668.394531 173.707031 672.140625 178.046875 675.78125 182.480469 C 679.417969 186.914062 682.949219 191.4375 686.363281 196.042969 C 689.78125 200.652344 693.082031 205.339844 696.269531 210.109375 C 699.457031 214.878906 702.523438 219.722656 705.472656 224.644531 C 708.421875 229.5625 711.25 234.554688 713.953125 239.613281 C 716.65625 244.671875 719.234375 249.792969 721.6875 254.980469 C 724.140625 260.164062 726.464844 265.40625 728.660156 270.707031 C 730.855469 276.007812 732.917969 281.355469 734.851562 286.757812 C 736.785156 292.160156 738.582031 297.601562 740.25 303.09375 C 741.914062 308.582031 743.441406 314.109375 744.835938 319.671875 C 746.230469 325.238281 747.488281 330.832031 748.605469 336.457031 C 749.726562 342.085938 750.707031 347.734375 751.546875 353.410156 C 752.390625 359.082031 753.089844 364.773438 753.652344 370.484375 C 754.214844 376.191406 754.636719 381.910156 754.917969 387.640625 C 755.199219 393.371094 755.339844 399.101562 755.339844 404.839844 Z M 755.339844 404.839844 "/>
<g clip-path="url(#clip1)" clip-rule="nonzero">
<path style=" stroke:none;fill-rule:nonzero;fill:rgb(0%,0%,0%);fill-opacity:1;" d="M 405.234375 780.207031 C 387.527344 780.207031 369.566406 778.945312 351.894531 776.421875 C 147.03125 747.242188 4.074219 556.820312 33.230469 351.925781 C 59.402344 168.105469 218.960938 29.472656 404.367188 29.472656 C 422.097656 29.472656 440.070312 30.753906 457.730469 33.253906 C 662.617188 62.453125 805.597656 252.878906 776.429688 457.757812 C 750.242188 641.59375 590.664062 780.207031 405.234375 780.207031 Z M 404.367188 79.15625 C 243.523438 79.15625 105.144531 199.433594 82.429688 358.9375 C 57.128906 536.699219 181.152344 701.933594 358.898438 727.261719 C 374.253906 729.449219 389.851562 730.550781 405.234375 730.550781 C 566.09375 730.550781 704.53125 610.265625 727.246094 450.746094 C 752.539062 273 628.5 107.773438 450.730469 82.4375 C 435.363281 80.242188 419.792969 79.15625 404.367188 79.15625 Z M 404.367188 79.15625 "/>
</g>
<g clip-path="url(#clip2)" clip-rule="nonzero">
<path style=" stroke:none;fill-rule:nonzero;fill:rgb(16.079712%,14.118958%,17.248535%);fill-opacity:1;" d="M 644.792969 464.777344 L 296.128906 675.65625 L 177.40625 478.429688 L 526.078125 267.554688 L 644.792969 464.777344 "/>
</g>
<g clip-path="url(#clip3)" clip-rule="nonzero">
<path style=" stroke:none;fill-rule:nonzero;fill:rgb(13.729858%,11.759949%,14.118958%);fill-opacity:1;" d="M 296.128906 675.65625 L 177.40625 478.429688 L 238.316406 441.59375 C 238.316406 471.347656 246.910156 500.339844 268.988281 524.625 C 293.578125 551.660156 326.410156 561.492188 360.613281 561.492188 C 390.722656 561.492188 421.902344 553.859375 449.421875 543.648438 L 456.601562 578.597656 L 296.128906 675.65625 "/>
</g>
<path style=" stroke:none;fill-rule:nonzero;fill:rgb(100%,100%,100%);fill-opacity:1;" d="M 290.253906 410.179688 L 409.328125 338.164062 L 333.007812 384.320312 L 290.253906 410.179688 M 460.132812 307.4375 L 460.125 307.4375 L 504.722656 280.464844 L 460.132812 307.4375 "/>
<path style=" stroke:none;fill-rule:nonzero;fill:rgb(21.179199%,18.818665%,22.349548%);fill-opacity:1;" d="M 349.019531 475.855469 C 332.917969 475.855469 318.550781 471.789062 308.535156 457.390625 C 299.011719 443.695312 293.019531 426.980469 290.253906 410.179688 L 333.007812 384.320312 C 344.105469 398.925781 358.683594 411.105469 376.320312 415.472656 C 382.171875 416.925781 387.988281 417.613281 393.695312 417.613281 C 403.640625 417.613281 413.277344 415.535156 422.316406 411.785156 L 431.269531 455.351562 C 408.777344 467.40625 382.5625 473.664062 357.695312 475.511719 C 354.753906 475.726562 351.863281 475.855469 349.019531 475.855469 M 479.101562 317.355469 C 479.261719 310.195312 479.132812 303.046875 478.964844 296.046875 L 460.132812 307.4375 L 504.722656 280.464844 C 504.761719 285.980469 504.675781 291.480469 504.480469 296.972656 C 502.488281 297.285156 500.523438 297.917969 498.664062 298.898438 C 497.976562 299.257812 497.308594 299.660156 496.652344 300.113281 C 491.78125 303.488281 488.992188 308.753906 488.558594 314.246094 C 485.3125 314.671875 482.101562 315.695312 479.101562 317.355469 "/>
<path style=" stroke:none;fill-rule:nonzero;fill:rgb(100%,100%,100%);fill-opacity:1;" d="M 333.007812 384.320312 L 409.328125 338.164062 L 333.007812 384.320312 "/>
<path style=" stroke:none;fill-rule:nonzero;fill:rgb(26.669312%,23.919678%,28.239441%);fill-opacity:1;" d="M 393.695312 417.613281 C 387.988281 417.613281 382.171875 416.925781 376.320312 415.472656 C 358.683594 411.105469 344.105469 398.925781 333.007812 384.320312 L 409.328125 338.164062 C 410.480469 341.59375 412.589844 344.582031 415.332031 346.8125 C 414.289062 348.859375 413.488281 351.042969 412.984375 353.351562 L 410.304688 353.351562 L 422.316406 411.785156 C 413.277344 415.535156 403.640625 417.613281 393.695312 417.613281 M 468.582031 327.84375 C 468.902344 326.46875 469.078125 325.023438 469.078125 323.550781 C 469.078125 316.75 465.496094 310.785156 460.132812 307.4375 L 478.964844 296.046875 C 479.132812 303.046875 479.261719 310.195312 479.101562 317.355469 C 478.316406 317.78125 477.546875 318.261719 476.800781 318.78125 C 473.285156 321.21875 470.527344 324.34375 468.582031 327.84375 "/>
<g clip-path="url(#clip4)" clip-rule="nonzero">
<path style=" stroke:none;fill-rule:nonzero;fill:rgb(16.079712%,14.118958%,17.248535%);fill-opacity:1;" d="M 471.539062 176.949219 L 174.113281 418.003906 L 140.472656 376.285156 L 437.886719 135.238281 L 471.539062 176.949219 "/>
</g>
<path style=" stroke:none;fill-rule:nonzero;fill:rgb(100%,100%,100%);fill-opacity:1;" d="M 233.027344 370.257812 L 237.398438 297.730469 L 188.929688 337.011719 L 184.5625 409.53125 L 233.027344 370.257812 "/>
<path style=" stroke:none;fill-rule:nonzero;fill:rgb(100%,100%,100%);fill-opacity:1;" d="M 272.105469 338.582031 L 320.152344 299.644531 L 324.511719 227.117188 L 276.054688 266.398438 L 271.6875 338.828125 L 272.105469 338.582031 "/>
<path style=" stroke:none;fill-rule:nonzero;fill:rgb(100%,100%,100%);fill-opacity:1;" d="M 409.816406 226.972656 L 414.183594 154.453125 L 365.71875 193.726562 L 361.34375 266.253906 L 409.816406 226.972656 "/>
<path style=" stroke:none;fill-rule:nonzero;fill:rgb(100%,100%,100%);fill-opacity:1;" d="M 471.539062 176.949219 L 451.648438 152.296875 L 449.074219 195.164062 Z M 471.539062 176.949219 "/>
<path style=" stroke:none;fill-rule:nonzero;fill:rgb(16.079712%,14.118958%,17.248535%);fill-opacity:1;" d="M 529.242188 265.855469 L 201.753906 463.921875 L 174.113281 418.003906 L 501.589844 219.929688 L 529.242188 265.855469 "/>
<path style=" stroke:none;fill-rule:nonzero;fill:rgb(100%,100%,100%);fill-opacity:1;" d="M 529.242188 265.855469 L 503.320312 222.800781 L 499.65625 283.757812 Z M 529.242188 265.855469 "/>
<path style=" stroke:none;fill-rule:nonzero;fill:rgb(100%,100%,100%);fill-opacity:1;" d="M 457.875 309.027344 L 461.792969 244.007812 L 413.945312 272.945312 L 410.027344 337.964844 L 457.875 309.027344 "/>
<path style=" stroke:none;fill-rule:nonzero;fill:rgb(100%,100%,100%);fill-opacity:1;" d="M 368.242188 363.226562 L 372.175781 298.210938 L 324.328125 327.148438 L 320.410156 392.167969 L 368.242188 363.226562 "/>
<path style=" stroke:none;fill-rule:nonzero;fill:rgb(100%,100%,100%);fill-opacity:1;" d="M 278.632812 417.429688 L 282.546875 352.410156 L 234.710938 381.347656 L 230.800781 446.359375 L 278.632812 417.429688 "/>
<g clip-path="url(#clip5)" clip-rule="nonzero">
<path style=" stroke:none;fill-rule:nonzero;fill:rgb(82.749939%,82.348633%,82.348633%);fill-opacity:1;" d="M 174.808594 480.226562 L 250.273438 434.578125 L 152.46875 366.558594 L 119.972656 389.132812 L 174.808594 480.226562 "/>
</g>
<path style=" stroke:none;fill-rule:nonzero;fill:rgb(69.018555%,68.238831%,68.629456%);fill-opacity:1;" d="M 163.449219 388.054688 C 167.605469 394.960938 165.386719 403.929688 158.503906 408.09375 C 151.621094 412.257812 142.675781 410.035156 138.515625 403.136719 C 134.359375 396.238281 136.578125 387.261719 143.460938 383.105469 C 150.34375 378.941406 159.296875 381.148438 163.449219 388.054688 "/>
<path style=" stroke:none;fill-rule:nonzero;fill:rgb(69.018555%,68.238831%,68.629456%);fill-opacity:1;" d="M 193.335938 437.703125 C 197.488281 444.59375 195.269531 453.570312 188.386719 457.734375 C 181.503906 461.898438 172.550781 459.683594 168.398438 452.777344 C 164.242188 445.878906 166.46875 436.910156 173.34375 432.746094 C 180.226562 428.574219 189.179688 430.796875 193.335938 437.703125 "/>
<path style=" stroke:none;fill-rule:nonzero;fill:rgb(100%,100%,100%);fill-opacity:1;" d="M 596.679688 229.792969 C 596.09375 226.933594 594.851562 224.160156 592.886719 221.746094 C 586.324219 213.613281 574.410156 212.351562 566.304688 218.9375 C 560.792969 223.40625 558.453125 230.351562 559.574219 236.882812 C 557.546875 237.589844 555.609375 238.625 553.859375 240.050781 C 545.742188 246.636719 544.476562 258.570312 551.054688 266.699219 C 554.78125 271.320312 560.230469 273.710938 565.730469 273.726562 C 566.570312 277.773438 568.351562 281.703125 571.128906 285.140625 C 580.484375 296.726562 597.449219 298.515625 609.003906 289.132812 C 617.5625 282.183594 620.75 271.058594 618.027344 261.042969 C 618.324219 260.824219 618.628906 260.625 618.929688 260.386719 C 627.027344 253.792969 628.277344 241.871094 621.710938 233.734375 C 615.550781 226.109375 604.707031 224.527344 596.679688 229.792969 "/>
<path style=" stroke:none;fill-rule:nonzero;fill:rgb(94.119263%,93.328857%,85.488892%);fill-opacity:1;" d="M 616.929688 251.503906 C 616.640625 251.746094 616.335938 251.945312 616.03125 252.160156 C 618.761719 262.183594 615.582031 273.304688 607.007812 280.257812 C 595.445312 289.636719 578.496094 287.851562 569.136719 276.261719 C 566.355469 272.824219 564.582031 268.898438 563.726562 264.847656 C 558.230469 264.832031 552.78125 262.441406 549.0625 257.820312 C 548.1875 256.734375 547.457031 255.574219 546.855469 254.375 C 546.761719 258.699219 548.125 263.078125 551.054688 266.699219 C 554.78125 271.320312 560.230469 273.710938 565.730469 273.726562 C 566.570312 277.773438 568.351562 281.703125 571.128906 285.140625 C 580.484375 296.726562 597.449219 298.515625 609.003906 289.132812 C 617.5625 282.183594 620.75 271.058594 618.027344 261.042969 C 618.324219 260.824219 618.628906 260.625 618.929688 260.386719 C 625.945312 254.679688 627.8125 244.972656 623.917969 237.1875 C 623.804688 242.566406 621.425781 247.859375 616.929688 251.503906 "/>
<path style=" stroke:none;fill-rule:nonzero;fill:rgb(95.289612%,82.348633%,54.508972%);fill-opacity:1;" d="M 607.214844 252.886719 C 612.113281 247.5 607.152344 244.054688 603.539062 241.554688 C 602.261719 240.679688 599.402344 240.691406 597.132812 239.050781 C 594.683594 237.277344 592.679688 233.503906 590.660156 231.25 C 583.191406 236.390625 581.378906 239.371094 587.65625 246.589844 C 581.507812 249.050781 566.332031 237.605469 563.507812 250.105469 C 560.722656 262.410156 578.414062 256.398438 583.464844 253.605469 C 589.480469 257.835938 582.207031 263.640625 587.96875 268.492188 C 597.945312 276.902344 593.128906 261.015625 594.777344 258.25 C 598.351562 252.242188 603.457031 267.203125 610.085938 264.644531 C 616.839844 262.03125 613.082031 251.375 606.664062 252.222656 L 607.214844 252.886719 "/>
<path style=" stroke:none;fill-rule:nonzero;fill:rgb(74.899292%,57.649231%,35.688782%);fill-opacity:1;" d="M 602.28125 253.589844 C 600.09375 250.90625 597.320312 245.445312 593.585938 245.199219 C 588.199219 244.847656 589.90625 249.402344 593.160156 252.007812 C 589.121094 254.191406 583.558594 249.648438 578.457031 251.007812 C 581.613281 255.277344 584.539062 250.984375 587.78125 252.96875 C 591.757812 255.40625 590.789062 256.613281 591.820312 260.808594 C 593.90625 258.820312 595.851562 257.546875 596.644531 254.996094 C 598.808594 257.667969 599.777344 255.789062 602.023438 255.996094 L 602.28125 253.589844 "/>
<path style=" stroke:none;fill-rule:nonzero;fill:rgb(100%,100%,100%);fill-opacity:1;" d="M 531.4375 239.546875 C 530.832031 236.691406 529.589844 233.925781 527.632812 231.496094 C 521.0625 223.359375 509.167969 222.105469 501.050781 228.691406 C 495.53125 233.160156 493.199219 240.097656 494.3125 246.636719 C 492.292969 247.339844 490.347656 248.378906 488.597656 249.808594 C 480.480469 256.390625 479.230469 268.316406 485.792969 276.460938 C 489.527344 281.074219 494.976562 283.464844 500.46875 283.472656 C 501.316406 287.53125 503.085938 291.457031 505.867188 294.894531 C 515.234375 306.476562 532.183594 308.269531 543.742188 298.890625 C 552.316406 291.9375 555.496094 280.808594 552.769531 270.792969 C 553.074219 270.578125 553.378906 270.371094 553.660156 270.136719 C 561.777344 263.550781 563.027344 251.617188 556.464844 243.488281 C 550.296875 235.867188 539.453125 234.285156 531.4375 239.546875 "/>
<path style=" stroke:none;fill-rule:nonzero;fill:rgb(94.119263%,93.328857%,85.488892%);fill-opacity:1;" d="M 551.679688 261.257812 C 551.378906 261.496094 551.074219 261.703125 550.777344 261.914062 C 553.5 271.929688 550.320312 283.0625 541.753906 290.011719 C 530.199219 299.394531 513.242188 297.605469 503.878906 286.015625 C 501.101562 282.570312 499.335938 278.652344 498.472656 274.597656 C 492.988281 274.589844 487.539062 272.199219 483.808594 267.582031 C 482.925781 266.492188 482.195312 265.332031 481.601562 264.128906 C 481.507812 268.453125 482.875 272.832031 485.792969 276.460938 C 489.527344 281.074219 494.976562 283.464844 500.46875 283.472656 C 501.316406 287.53125 503.085938 291.457031 505.867188 294.894531 C 515.234375 306.476562 532.183594 308.269531 543.742188 298.890625 C 552.316406 291.9375 555.496094 280.808594 552.769531 270.792969 C 553.074219 270.578125 553.378906 270.371094 553.660156 270.136719 C 560.703125 264.429688 562.5625 254.71875 558.675781 246.933594 C 558.550781 252.3125 556.175781 257.605469 551.679688 261.257812 "/>
<path style=" stroke:none;fill-rule:nonzero;fill:rgb(95.289612%,82.348633%,54.508972%);fill-opacity:1;" d="M 541.953125 262.632812 C 546.859375 257.253906 541.90625 253.808594 538.289062 251.304688 C 537.007812 250.425781 534.140625 250.449219 531.871094 248.796875 C 529.421875 247.027344 527.425781 243.261719 525.414062 241.007812 C 517.9375 246.148438 516.125 249.121094 522.40625 256.347656 C 516.253906 258.804688 501.074219 247.355469 498.253906 259.851562 C 495.464844 272.167969 513.152344 266.148438 518.214844 263.359375 C 524.226562 267.589844 516.957031 273.398438 522.71875 278.25 C 532.6875 286.660156 527.875 270.761719 529.523438 268.003906 C 533.089844 262 538.195312 276.957031 544.832031 274.390625 C 551.585938 271.777344 547.820312 261.128906 541.410156 261.976562 L 541.953125 262.632812 "/>
<path style=" stroke:none;fill-rule:nonzero;fill:rgb(74.899292%,57.649231%,35.688782%);fill-opacity:1;" d="M 537.023438 263.335938 C 534.851562 260.65625 532.0625 255.199219 528.332031 254.957031 C 522.953125 254.605469 524.652344 259.148438 527.90625 261.761719 C 523.867188 263.941406 518.304688 259.402344 513.207031 260.753906 C 516.359375 265.03125 519.28125 260.738281 522.519531 262.726562 C 526.496094 265.164062 525.53125 266.371094 526.558594 270.5625 C 528.652344 268.570312 530.605469 267.292969 531.382812 264.75 C 533.554688 267.421875 534.523438 265.542969 536.769531 265.742188 L 537.023438 263.335938 "/>
<path style=" stroke:none;fill-rule:nonzero;fill:rgb(100%,100%,100%);fill-opacity:1;" d="M 485.121094 269.484375 C 484.527344 266.621094 483.277344 263.855469 481.3125 261.433594 C 474.757812 253.296875 462.84375 252.046875 454.734375 258.628906 C 449.226562 263.097656 446.886719 270.035156 448.007812 276.574219 C 445.980469 277.277344 444.042969 278.316406 442.28125 279.746094 C 434.164062 286.332031 432.914062 298.253906 439.484375 306.390625 C 443.210938 311.011719 448.660156 313.40625 454.15625 313.417969 C 455.011719 317.46875 456.777344 321.386719 459.558594 324.832031 C 468.925781 336.421875 485.875 338.210938 497.4375 328.828125 C 505.996094 321.875 509.183594 310.746094 506.453125 300.730469 C 506.757812 300.515625 507.0625 300.3125 507.351562 300.074219 C 515.460938 293.488281 516.71875 281.5625 510.148438 273.429688 C 503.984375 265.796875 493.140625 264.222656 485.121094 269.484375 "/>
<path style=" stroke:none;fill-rule:nonzero;fill:rgb(94.119263%,93.328857%,85.488892%);fill-opacity:1;" d="M 505.355469 291.203125 C 505.066406 291.433594 504.769531 291.640625 504.464844 291.855469 C 507.191406 301.871094 504.007812 313 495.441406 319.953125 C 483.886719 329.332031 466.929688 327.546875 457.5625 315.957031 C 454.789062 312.511719 453.011719 308.589844 452.167969 304.535156 C 446.671875 304.527344 441.222656 302.136719 437.488281 297.515625 C 436.621094 296.429688 435.878906 295.269531 435.285156 294.070312 C 435.195312 298.394531 436.558594 302.769531 439.484375 306.390625 C 443.210938 311.011719 448.660156 313.40625 454.15625 313.417969 C 455.011719 317.46875 456.777344 321.386719 459.558594 324.832031 C 468.925781 336.421875 485.875 338.210938 497.4375 328.828125 C 505.996094 321.875 509.183594 310.746094 506.453125 300.730469 C 506.757812 300.515625 507.0625 300.3125 507.351562 300.074219 C 514.378906 294.375 516.246094 284.65625 512.351562 276.875 C 512.238281 282.257812 509.859375 287.546875 505.355469 291.203125 "/>
<path style=" stroke:none;fill-rule:nonzero;fill:rgb(95.289612%,82.348633%,54.508972%);fill-opacity:1;" d="M 495.640625 292.578125 C 500.546875 287.203125 495.59375 283.75 491.964844 281.242188 C 490.699219 280.363281 487.835938 280.386719 485.5625 278.746094 C 483.109375 276.964844 481.121094 273.199219 479.101562 270.945312 C 471.625 276.085938 469.808594 279.066406 476.089844 286.292969 C 469.933594 288.746094 454.765625 277.292969 451.9375 289.792969 C 449.15625 302.105469 466.839844 296.085938 471.898438 293.296875 C 477.910156 297.53125 470.648438 303.34375 476.410156 308.195312 C 486.378906 316.597656 481.5625 300.699219 483.199219 297.941406 C 486.773438 291.9375 491.882812 306.902344 498.527344 304.335938 C 505.28125 301.714844 501.515625 291.066406 495.105469 291.914062 L 495.640625 292.578125 "/>
<path style=" stroke:none;fill-rule:nonzero;fill:rgb(74.899292%,57.649231%,35.688782%);fill-opacity:1;" d="M 490.714844 293.273438 C 488.527344 290.601562 485.753906 285.140625 482.019531 284.894531 C 476.640625 284.535156 478.339844 289.089844 481.59375 291.703125 C 477.554688 293.878906 471.988281 289.339844 466.898438 290.699219 C 470.046875 294.972656 472.972656 290.667969 476.210938 292.664062 C 480.183594 295.101562 479.214844 296.308594 480.242188 300.5 C 482.339844 298.515625 484.289062 297.230469 485.074219 294.6875 C 487.238281 297.363281 488.207031 295.484375 490.464844 295.679688 L 490.714844 293.273438 "/>
<path style=" stroke:none;fill-rule:nonzero;fill:rgb(100%,100%,100%);fill-opacity:1;" d="M 577.726562 296.675781 C 579.808594 294.613281 581.4375 292.058594 582.398438 289.089844 C 585.621094 279.140625 580.1875 268.445312 570.257812 265.214844 C 563.511719 263.015625 556.441406 264.832031 551.585938 269.332031 C 549.894531 268.011719 547.964844 266.949219 545.816406 266.253906 C 535.878906 263.015625 525.222656 268.460938 522 278.417969 C 520.164062 284.0625 521.132812 289.945312 524.113281 294.574219 C 521.183594 297.492188 518.859375 301.121094 517.503906 305.328125 C 512.910156 319.507812 520.644531 334.742188 534.789062 339.347656 C 545.277344 342.761719 556.320312 339.378906 563.214844 331.632812 C 563.558594 331.761719 563.886719 331.90625 564.246094 332.023438 C 574.183594 335.261719 584.839844 329.8125 588.0625 319.859375 C 591.09375 310.523438 586.5 300.546875 577.726562 296.675781 "/>
<path style=" stroke:none;fill-rule:nonzero;fill:rgb(94.119263%,93.328857%,85.488892%);fill-opacity:1;" d="M 570.585938 325.511719 C 570.234375 325.398438 569.898438 325.253906 569.558594 325.117188 C 562.660156 332.863281 551.617188 336.253906 541.136719 332.839844 C 526.992188 328.234375 519.25 313 523.84375 298.820312 C 525.210938 294.613281 527.527344 290.984375 530.453125 288.066406 C 527.472656 283.433594 526.503906 277.554688 528.339844 271.90625 C 528.769531 270.578125 529.339844 269.332031 530.019531 268.171875 C 526.351562 270.449219 523.433594 273.976562 522 278.417969 C 520.164062 284.0625 521.132812 289.945312 524.113281 294.574219 C 521.183594 297.492188 518.859375 301.121094 517.503906 305.328125 C 512.910156 319.507812 520.644531 334.742188 534.789062 339.347656 C 545.277344 342.761719 556.320312 339.378906 563.214844 331.632812 C 563.558594 331.761719 563.886719 331.90625 564.246094 332.023438 C 572.84375 334.824219 581.996094 331.105469 586.386719 323.59375 C 581.828125 326.429688 576.097656 327.308594 570.585938 325.511719 "/>
<path style=" stroke:none;fill-rule:nonzero;fill:rgb(95.289612%,82.348633%,54.508972%);fill-opacity:1;" d="M 564.136719 318.09375 C 571.316406 319.292969 571.5 313.242188 571.621094 308.835938 C 571.675781 307.285156 570.082031 304.894531 570.226562 302.082031 C 570.378906 299.058594 572.445312 295.320312 573.238281 292.402344 C 564.863281 288.921875 561.378906 289.019531 558.757812 298.234375 C 553.347656 294.398438 554.664062 275.40625 542.667969 279.835938 C 530.847656 284.207031 545.519531 295.796875 550.609375 298.53125 C 550.34375 305.894531 541.527344 302.945312 540.605469 310.425781 C 539.003906 323.390625 549.671875 310.683594 552.882812 310.5625 C 559.847656 310.296875 550.117188 322.738281 555.878906 326.917969 C 561.746094 331.171875 568.605469 322.210938 564.40625 317.277344 L 564.136719 318.09375 "/>
<path style=" stroke:none;fill-rule:nonzero;fill:rgb(74.899292%,57.649231%,35.688782%);fill-opacity:1;" d="M 560.875 314.335938 C 561.929688 311.035156 564.976562 305.734375 563.15625 302.457031 C 560.519531 297.742188 557.628906 301.648438 557.226562 305.8125 C 553.210938 303.601562 553.972656 296.453125 550.0625 292.910156 C 548.203125 297.882812 553.394531 297.996094 553.492188 301.808594 C 553.621094 306.476562 552.082031 306.316406 549.132812 309.46875 C 551.9375 310.140625 554.0625 311.089844 556.625 310.363281 C 555.566406 313.640625 557.660156 313.425781 558.71875 315.429688 L 560.875 314.335938 "/>
<path style=" stroke:none;fill-rule:nonzero;fill:rgb(100%,100%,100%);fill-opacity:1;" d="M 637.773438 316.445312 C 640.65625 316.0625 643.5 315.03125 646.066406 313.25 C 654.648438 307.300781 656.796875 295.496094 650.859375 286.886719 C 646.820312 281.042969 640.105469 278.1875 633.515625 278.8125 C 632.972656 276.734375 632.082031 274.71875 630.792969 272.847656 C 624.855469 264.246094 613.082031 262.089844 604.5 268.042969 C 599.628906 271.425781 596.832031 276.683594 596.40625 282.183594 C 592.3125 282.71875 588.273438 284.199219 584.640625 286.71875 C 572.40625 295.199219 569.34375 312.007812 577.804688 324.269531 C 584.066406 333.359375 594.90625 337.375 605.074219 335.40625 C 605.269531 335.726562 605.445312 336.046875 605.660156 336.351562 C 611.597656 344.960938 623.371094 347.117188 631.953125 341.164062 C 640.007812 335.582031 642.402344 324.855469 637.773438 316.445312 "/>
<path style=" stroke:none;fill-rule:nonzero;fill:rgb(94.119263%,93.328857%,85.488892%);fill-opacity:1;" d="M 614.636719 335.039062 C 614.421875 334.726562 614.25 334.40625 614.050781 334.09375 C 603.882812 336.0625 593.054688 332.035156 586.789062 322.953125 C 578.328125 310.691406 581.378906 293.878906 593.617188 285.398438 C 597.253906 282.878906 601.285156 281.402344 605.386719 280.859375 C 605.8125 275.367188 608.601562 270.097656 613.480469 266.726562 C 614.621094 265.925781 615.832031 265.285156 617.074219 264.78125 C 612.777344 264.359375 608.328125 265.382812 604.5 268.042969 C 599.628906 271.425781 596.832031 276.683594 596.40625 282.183594 C 592.3125 282.71875 588.273438 284.199219 584.640625 286.71875 C 572.40625 295.199219 569.34375 312.007812 577.804688 324.269531 C 584.066406 333.359375 594.90625 337.375 605.074219 335.40625 C 605.269531 335.726562 605.445312 336.046875 605.660156 336.351562 C 610.804688 343.808594 620.324219 346.414062 628.355469 343.113281 C 623.011719 342.585938 617.9375 339.804688 614.636719 335.039062 "/>
<path style=" stroke:none;fill-rule:nonzero;fill:rgb(95.289612%,82.348633%,54.508972%);fill-opacity:1;" d="M 613.996094 325.214844 C 618.988281 330.523438 622.792969 325.832031 625.542969 322.402344 C 626.527344 321.195312 626.714844 318.339844 628.523438 316.183594 C 630.472656 313.871094 634.375 312.160156 636.769531 310.3125 C 632.21875 302.449219 629.398438 300.417969 621.738281 306.15625 C 619.757812 299.8125 632.289062 285.511719 620.070312 281.746094 C 608.03125 278.035156 612.6875 296.164062 615.078125 301.425781 C 610.40625 307.125 605.1875 299.425781 599.921875 304.808594 C 590.804688 314.144531 606.984375 310.53125 609.605469 312.382812 C 615.300781 316.40625 600.042969 320.378906 602.09375 327.207031 C 604.179688 334.152344 615.054688 331.203125 614.707031 324.726562 L 613.996094 325.214844 "/>
<path style=" stroke:none;fill-rule:nonzero;fill:rgb(74.899292%,57.649231%,35.688782%);fill-opacity:1;" d="M 613.675781 320.234375 C 616.503906 318.261719 622.152344 315.886719 622.675781 312.183594 C 623.433594 306.828125 618.773438 308.179688 615.933594 311.234375 C 614.066406 307.039062 619.003906 301.824219 618.042969 296.628906 C 613.554688 299.457031 617.609375 302.695312 615.382812 305.789062 C 612.664062 309.578125 611.535156 308.515625 607.28125 309.234375 C 609.105469 311.472656 610.222656 313.519531 612.703125 314.496094 C 609.875 316.460938 611.671875 317.566406 611.304688 319.796875 L 613.675781 320.234375 "/>
<path style=" stroke:none;fill-rule:nonzero;fill:rgb(100%,100%,100%);fill-opacity:1;" d="M 466.984375 332.203125 C 468.308594 329.609375 469.078125 326.667969 469.078125 323.550781 C 469.078125 313.082031 460.613281 304.605469 450.171875 304.605469 C 443.082031 304.605469 436.917969 308.515625 433.679688 314.304688 C 431.671875 313.582031 429.507812 313.152344 427.246094 313.152344 C 416.804688 313.152344 408.335938 321.640625 408.335938 332.105469 C 408.335938 338.050781 411.066406 343.34375 415.332031 346.8125 C 413.445312 350.5 412.359375 354.664062 412.359375 359.09375 C 412.359375 374.015625 424.417969 386.09375 439.292969 386.09375 C 450.316406 386.09375 459.773438 379.445312 463.941406 369.949219 C 464.316406 369.964844 464.671875 370.003906 465.046875 370.003906 C 475.496094 370.003906 483.957031 361.515625 483.957031 351.050781 C 483.957031 341.242188 476.507812 333.175781 466.984375 332.203125 "/>
<path style=" stroke:none;fill-rule:nonzero;fill:rgb(94.119263%,93.328857%,85.488892%);fill-opacity:1;" d="M 469.078125 361.851562 C 468.707031 361.851562 468.339844 361.816406 467.964844 361.792969 C 463.804688 371.296875 454.339844 377.941406 443.320312 377.941406 C 428.449219 377.941406 416.394531 365.855469 416.394531 350.945312 C 416.394531 346.511719 417.476562 342.351562 419.359375 338.660156 C 415.089844 335.183594 412.359375 329.890625 412.359375 323.953125 C 412.359375 322.554688 412.519531 321.1875 412.820312 319.882812 C 410.023438 323.183594 408.335938 327.445312 408.335938 332.105469 C 408.335938 338.050781 411.066406 343.34375 415.332031 346.8125 C 413.445312 350.5 412.359375 354.664062 412.359375 359.09375 C 412.359375 374.015625 424.417969 386.09375 439.292969 386.09375 C 450.316406 386.09375 459.773438 379.445312 463.941406 369.949219 C 464.316406 369.964844 464.671875 370.003906 465.046875 370.003906 C 474.09375 370.003906 481.636719 363.632812 483.503906 355.128906 C 480.039062 359.242188 474.863281 361.851562 469.078125 361.851562 "/>
<path style=" stroke:none;fill-rule:nonzero;fill:rgb(95.289612%,82.348633%,54.508972%);fill-opacity:1;" d="M 460.648438 356.789062 C 467.851562 355.703125 466.167969 349.898438 464.925781 345.671875 C 464.476562 344.175781 462.242188 342.386719 461.511719 339.675781 C 460.726562 336.757812 461.535156 332.5625 461.382812 329.539062 C 452.34375 328.828125 449.066406 329.988281 449.414062 339.570312 C 443.082031 337.589844 438.480469 319.125 428.441406 327.054688 C 418.542969 334.871094 436.070312 341.347656 441.757812 342.371094 C 443.769531 349.453125 434.476562 349.386719 435.902344 356.789062 C 438.371094 369.613281 444.613281 354.222656 447.625 353.121094 C 454.171875 350.707031 448.746094 365.550781 455.511719 367.742188 C 462.402344 369.964844 466.167969 359.324219 460.648438 355.933594 L 460.648438 356.789062 "/>
<path style=" stroke:none;fill-rule:nonzero;fill:rgb(74.899292%,57.649231%,35.688782%);fill-opacity:1;" d="M 456.390625 354.222656 C 456.375 350.769531 457.640625 344.773438 454.894531 342.21875 C 450.941406 338.554688 449.402344 343.167969 450.292969 347.246094 C 445.78125 346.390625 444.300781 339.355469 439.5 337.195312 C 439.265625 342.503906 444.226562 341.003906 445.507812 344.597656 C 447.070312 349.003906 445.550781 349.324219 443.722656 353.234375 C 446.589844 353.007812 448.914062 353.242188 451.121094 351.761719 C 451.121094 355.207031 453.058594 354.359375 454.683594 355.933594 L 456.390625 354.222656 "/>
<path style=" stroke:none;fill-rule:nonzero;fill:rgb(100%,100%,100%);fill-opacity:1;" d="M 529.925781 348.515625 C 532.816406 348.132812 535.664062 347.09375 538.21875 345.320312 C 546.808594 339.371094 548.949219 327.566406 543.011719 318.957031 C 538.988281 313.113281 532.257812 310.257812 525.675781 310.882812 C 525.125 308.804688 524.234375 306.789062 522.953125 304.925781 C 517.015625 296.316406 505.242188 294.160156 496.652344 300.113281 C 491.78125 303.488281 488.992188 308.753906 488.558594 314.246094 C 484.464844 314.789062 480.425781 316.261719 476.800781 318.78125 C 464.558594 327.261719 461.496094 344.078125 469.960938 356.335938 C 476.226562 365.429688 487.066406 369.445312 497.230469 367.484375 C 497.421875 367.796875 497.605469 368.117188 497.8125 368.421875 C 503.746094 377.03125 515.53125 379.1875 524.113281 373.234375 C 532.167969 367.652344 534.554688 356.925781 529.925781 348.515625 "/>
<path style=" stroke:none;fill-rule:nonzero;fill:rgb(94.119263%,93.328857%,85.488892%);fill-opacity:1;" d="M 506.796875 367.109375 C 506.582031 366.796875 506.40625 366.476562 506.210938 366.160156 C 496.035156 368.132812 485.210938 364.105469 478.949219 355.023438 C 470.480469 342.753906 473.542969 325.941406 485.777344 317.46875 C 489.414062 314.949219 493.445312 313.464844 497.542969 312.929688 C 497.964844 307.4375 500.761719 302.175781 505.628906 298.789062 C 506.789062 297.996094 507.992188 297.355469 509.234375 296.851562 C 504.9375 296.429688 500.476562 297.460938 496.652344 300.113281 C 491.78125 303.488281 488.992188 308.753906 488.558594 314.246094 C 484.464844 314.789062 480.425781 316.261719 476.800781 318.78125 C 464.558594 327.261719 461.496094 344.078125 469.960938 356.335938 C 476.226562 365.429688 487.066406 369.445312 497.230469 367.484375 C 497.421875 367.796875 497.605469 368.117188 497.8125 368.421875 C 502.957031 375.878906 512.472656 378.484375 520.515625 375.175781 C 515.179688 374.65625 510.089844 371.875 506.796875 367.109375 "/>
<path style=" stroke:none;fill-rule:nonzero;fill:rgb(95.289612%,82.348633%,54.508972%);fill-opacity:1;" d="M 506.15625 357.285156 C 511.140625 362.59375 514.949219 357.902344 517.710938 354.472656 C 518.683594 353.265625 518.867188 350.402344 520.691406 348.253906 C 522.632812 345.941406 526.535156 344.230469 528.9375 342.386719 C 524.378906 334.519531 521.550781 332.480469 513.890625 338.21875 C 511.917969 331.882812 524.453125 317.582031 512.222656 313.808594 C 500.1875 310.105469 504.84375 328.234375 507.238281 333.496094 C 504.875 336.375 502.375 335.832031 499.792969 335.285156 C 497.277344 334.75 494.6875 334.214844 492.078125 336.878906 C 482.964844 346.214844 499.144531 342.601562 501.765625 344.449219 C 507.46875 348.476562 492.195312 352.449219 494.242188 359.269531 C 496.339844 366.222656 507.214844 363.265625 506.855469 356.796875 L 506.15625 357.285156 "/>
<path style=" stroke:none;fill-rule:nonzero;fill:rgb(74.899292%,57.649231%,35.688782%);fill-opacity:1;" d="M 505.835938 352.304688 C 508.671875 350.332031 514.304688 347.964844 514.835938 344.253906 C 515.589844 338.898438 510.933594 340.25 508.09375 343.3125 C 506.230469 339.109375 511.164062 333.894531 510.203125 328.699219 C 505.714844 331.523438 509.769531 334.765625 507.542969 337.859375 C 504.816406 341.648438 503.6875 340.59375 499.433594 341.304688 C 501.261719 343.542969 502.382812 345.582031 504.867188 346.566406 C 502.03125 348.53125 503.824219 349.636719 503.464844 351.867188 L 505.835938 352.304688 "/>
<path style=" stroke:none;fill-rule:nonzero;fill:rgb(100%,100%,100%);fill-opacity:1;" d="M 606.488281 352.34375 C 609.371094 351.960938 612.214844 350.929688 614.78125 349.148438 C 623.371094 343.199219 625.511719 331.394531 619.574219 322.785156 C 615.535156 316.941406 608.820312 314.085938 602.230469 314.710938 C 601.6875 312.632812 600.796875 310.617188 599.507812 308.746094 C 593.570312 300.144531 581.796875 297.988281 573.214844 303.9375 C 568.34375 307.324219 565.539062 312.578125 565.121094 318.070312 C 561.019531 318.613281 556.988281 320.097656 553.355469 322.609375 C 541.121094 331.097656 538.058594 347.902344 546.519531 360.164062 C 552.78125 369.25 563.621094 373.273438 573.792969 371.3125 C 573.976562 371.625 574.160156 371.945312 574.375 372.257812 C 580.3125 380.859375 592.085938 383.015625 600.675781 377.054688 C 608.722656 371.480469 611.117188 360.753906 606.488281 352.34375 "/>
<path style=" stroke:none;fill-rule:nonzero;fill:rgb(94.119263%,93.328857%,85.488892%);fill-opacity:1;" d="M 583.351562 370.929688 C 583.136719 370.625 582.964844 370.300781 582.765625 369.988281 C 572.597656 371.960938 561.769531 367.933594 555.503906 358.851562 C 547.042969 346.589844 550.101562 329.769531 562.332031 321.296875 C 565.96875 318.773438 570 317.300781 574.097656 316.757812 C 574.527344 311.265625 577.316406 305.996094 582.1875 302.625 C 583.335938 301.832031 584.546875 301.179688 585.789062 300.675781 C 581.5 300.257812 577.042969 301.289062 573.214844 303.9375 C 568.34375 307.324219 565.539062 312.578125 565.121094 318.070312 C 561.019531 318.613281 556.988281 320.097656 553.355469 322.609375 C 541.121094 331.097656 538.058594 347.902344 546.519531 360.164062 C 552.78125 369.25 563.621094 373.273438 573.792969 371.3125 C 573.976562 371.625 574.160156 371.945312 574.375 372.257812 C 579.511719 379.707031 589.03125 382.3125 597.070312 379.011719 C 591.726562 378.484375 586.652344 375.703125 583.351562 370.929688 "/>
<path style=" stroke:none;fill-rule:nonzero;fill:rgb(95.289612%,82.348633%,54.508972%);fill-opacity:1;" d="M 582.71875 361.113281 C 587.703125 366.421875 591.507812 361.730469 594.265625 358.300781 C 595.242188 357.09375 595.429688 354.238281 597.238281 352.082031 C 599.1875 349.769531 603.089844 348.054688 605.492188 346.214844 C 600.941406 338.347656 598.113281 336.316406 590.445312 342.050781 C 588.472656 335.710938 601.011719 321.410156 588.785156 317.644531 C 576.742188 313.933594 581.402344 332.058594 583.792969 337.324219 C 581.429688 340.203125 578.929688 339.660156 576.347656 339.109375 C 573.832031 338.578125 571.234375 338.042969 568.636719 340.707031 C 559.519531 350.042969 575.691406 346.429688 578.3125 348.277344 C 584.023438 352.304688 568.757812 356.277344 570.808594 363.097656 C 572.894531 370.050781 583.769531 367.101562 583.421875 360.625 L 582.71875 361.113281 "/>
<path style=" stroke:none;fill-rule:nonzero;fill:rgb(74.899292%,57.649231%,35.688782%);fill-opacity:1;" d="M 582.398438 356.132812 C 585.21875 354.160156 590.867188 351.785156 591.390625 348.078125 C 592.148438 342.722656 587.488281 344.085938 584.648438 347.132812 C 582.78125 342.9375 587.71875 337.71875 586.75 332.519531 C 582.269531 335.351562 586.324219 338.589844 584.105469 341.691406 C 581.378906 345.480469 580.25 344.414062 575.996094 345.128906 C 577.820312 347.367188 578.9375 349.417969 581.414062 350.394531 C 578.597656 352.359375 580.386719 353.464844 580.019531 355.695312 L 582.398438 356.132812 "/>
<path style=" stroke:none;fill-rule:nonzero;fill:rgb(100%,100%,100%);fill-opacity:1;" d="M 670.234375 344.359375 C 673.121094 343.984375 675.972656 342.945312 678.527344 341.171875 C 687.113281 335.222656 689.257812 323.410156 683.320312 314.808594 C 679.296875 308.964844 672.574219 306.101562 665.980469 306.726562 C 665.433594 304.65625 664.546875 302.632812 663.261719 300.769531 C 657.316406 292.160156 645.546875 290.011719 636.960938 295.964844 C 632.089844 299.339844 629.300781 304.605469 628.867188 310.097656 C 624.773438 310.632812 620.734375 312.113281 617.105469 314.632812 C 604.867188 323.113281 601.804688 339.929688 610.269531 352.191406 C 616.535156 361.273438 627.371094 365.296875 637.539062 363.335938 C 637.730469 363.648438 637.914062 363.96875 638.117188 364.273438 C 644.054688 372.882812 655.835938 375.03125 664.417969 369.078125 C 672.476562 363.496094 674.859375 352.777344 670.234375 344.359375 "/>
<path style=" stroke:none;fill-rule:nonzero;fill:rgb(94.119263%,93.328857%,85.488892%);fill-opacity:1;" d="M 647.105469 362.953125 C 646.890625 362.648438 646.714844 362.328125 646.515625 362.015625 C 636.34375 363.976562 625.519531 359.957031 619.246094 350.875 C 610.796875 338.605469 613.851562 321.792969 626.078125 313.3125 C 629.71875 310.792969 633.75 309.316406 637.851562 308.773438 C 638.269531 303.28125 641.066406 298.019531 645.9375 294.640625 C 647.089844 293.847656 648.300781 293.207031 649.542969 292.703125 C 645.242188 292.273438 640.785156 293.3125 636.960938 295.964844 C 632.089844 299.339844 629.300781 304.605469 628.867188 310.097656 C 624.773438 310.632812 620.734375 312.113281 617.105469 314.632812 C 604.867188 323.113281 601.804688 339.929688 610.269531 352.191406 C 616.535156 361.273438 627.371094 365.296875 637.539062 363.335938 C 637.730469 363.648438 637.914062 363.96875 638.117188 364.273438 C 643.261719 371.730469 652.78125 374.328125 660.820312 371.027344 C 655.488281 370.5 650.394531 367.726562 647.105469 362.953125 "/>
<path style=" stroke:none;fill-rule:nonzero;fill:rgb(95.289612%,82.348633%,54.508972%);fill-opacity:1;" d="M 646.464844 353.136719 C 651.449219 358.445312 655.257812 353.746094 658.015625 350.324219 C 658.992188 349.117188 659.175781 346.253906 660.980469 344.105469 C 662.941406 341.792969 666.84375 340.082031 669.242188 338.230469 C 664.6875 330.371094 661.859375 328.332031 654.199219 334.070312 C 652.226562 327.734375 664.761719 313.425781 652.53125 309.660156 C 640.496094 305.957031 645.152344 324.078125 647.546875 329.347656 C 645.183594 332.226562 642.683594 331.679688 640.101562 331.136719 C 637.578125 330.601562 634.992188 330.066406 632.386719 332.722656 C 623.273438 342.058594 639.445312 338.445312 642.066406 340.296875 C 647.773438 344.328125 632.5 348.300781 634.550781 355.121094 C 636.648438 362.074219 647.523438 359.117188 647.164062 352.648438 L 646.464844 353.136719 "/>
<path style=" stroke:none;fill-rule:nonzero;fill:rgb(74.899292%,57.649231%,35.688782%);fill-opacity:1;" d="M 646.144531 348.15625 C 648.976562 346.183594 654.609375 343.808594 655.136719 340.097656 C 655.898438 334.75 651.242188 336.101562 648.398438 339.15625 C 646.53125 334.960938 651.46875 329.738281 650.511719 324.542969 C 646.019531 327.375 650.074219 330.617188 647.851562 333.710938 C 645.121094 337.5 643.992188 336.4375 639.742188 337.148438 C 641.570312 339.386719 642.691406 341.433594 645.167969 342.410156 C 642.339844 344.375 644.132812 345.480469 643.773438 347.71875 L 646.144531 348.15625 "/>
<path style=" stroke:none;fill-rule:nonzero;fill:rgb(100%,100%,100%);fill-opacity:1;" d="M 559.125 360.835938 C 561.210938 360.5625 563.261719 359.8125 565.105469 358.53125 C 571.296875 354.246094 572.835938 345.742188 568.558594 339.546875 C 565.664062 335.335938 560.808594 333.273438 556.066406 333.726562 C 555.671875 332.226562 555.039062 330.785156 554.109375 329.433594 C 549.832031 323.238281 541.351562 321.6875 535.171875 325.972656 C 531.65625 328.410156 529.652344 332.199219 529.339844 336.15625 C 526.390625 336.542969 523.480469 337.605469 520.863281 339.417969 C 512.046875 345.527344 509.84375 357.636719 515.933594 366.476562 C 520.460938 373.015625 528.257812 375.910156 535.582031 374.496094 C 535.71875 374.726562 535.847656 374.953125 536 375.175781 C 540.285156 381.378906 548.757812 382.929688 554.949219 378.636719 C 560.738281 374.617188 562.460938 366.894531 559.125 360.835938 "/>
<path style=" stroke:none;fill-rule:nonzero;fill:rgb(94.119263%,93.328857%,85.488892%);fill-opacity:1;" d="M 542.472656 374.222656 C 542.320312 374 542.1875 373.769531 542.042969 373.550781 C 534.71875 374.960938 526.925781 372.066406 522.414062 365.519531 C 516.324219 356.6875 518.519531 344.582031 527.335938 338.46875 C 529.941406 336.660156 532.851562 335.597656 535.808594 335.199219 C 536.113281 331.242188 538.121094 327.453125 541.632812 325.023438 C 542.457031 324.449219 543.324219 323.984375 544.222656 323.617188 C 541.136719 323.3125 537.921875 324.0625 535.171875 325.972656 C 531.65625 328.410156 529.652344 332.199219 529.339844 336.15625 C 526.390625 336.542969 523.480469 337.605469 520.863281 339.417969 C 512.046875 345.527344 509.84375 357.636719 515.933594 366.476562 C 520.460938 373.015625 528.257812 375.910156 535.582031 374.496094 C 535.71875 374.726562 535.847656 374.953125 536 375.175781 C 539.710938 380.546875 546.5625 382.417969 552.347656 380.042969 C 548.507812 379.667969 544.839844 377.667969 542.472656 374.222656 "/>
<path style=" stroke:none;fill-rule:nonzero;fill:rgb(95.289612%,82.348633%,54.508972%);fill-opacity:1;" d="M 542.015625 367.15625 C 545.597656 370.980469 548.347656 367.589844 550.328125 365.128906 C 551.03125 364.257812 551.167969 362.1875 552.476562 360.644531 C 553.878906 358.980469 556.683594 357.75 558.414062 356.421875 C 555.128906 350.753906 553.101562 349.292969 547.578125 353.417969 C 546.160156 348.851562 555.191406 338.554688 546.386719 335.839844 C 537.707031 333.167969 541.0625 346.222656 542.785156 350.019531 C 541.085938 352.089844 539.285156 351.699219 537.425781 351.304688 C 535.613281 350.921875 533.746094 350.539062 531.871094 352.457031 C 525.300781 359.179688 536.953125 356.574219 538.84375 357.910156 C 542.953125 360.8125 531.953125 363.671875 533.433594 368.582031 C 534.941406 373.585938 542.769531 371.464844 542.515625 366.796875 L 542.015625 367.15625 "/>
<path style=" stroke:none;fill-rule:nonzero;fill:rgb(74.899292%,57.649231%,35.688782%);fill-opacity:1;" d="M 541.785156 363.566406 C 543.8125 362.144531 547.875 360.433594 548.261719 357.765625 C 548.804688 353.910156 545.453125 354.886719 543.402344 357.085938 C 542.058594 354.0625 545.617188 350.300781 544.925781 346.558594 C 541.695312 348.597656 544.613281 350.929688 543.003906 353.160156 C 541.046875 355.894531 540.230469 355.121094 537.167969 355.636719 C 538.476562 357.253906 539.292969 358.730469 541.070312 359.429688 C 539.042969 360.84375 540.335938 361.648438 540.070312 363.25 L 541.785156 363.566406 "/>
<path style=" stroke:none;fill-rule:nonzero;fill:rgb(100%,100%,100%);fill-opacity:1;" d="M 640.328125 353.878906 C 642.410156 353.609375 644.457031 352.863281 646.304688 351.578125 C 652.492188 347.285156 654.039062 338.789062 649.753906 332.585938 C 646.851562 328.378906 642.003906 326.324219 637.265625 326.773438 C 636.875 325.277344 636.234375 323.824219 635.304688 322.480469 C 631.03125 316.277344 622.554688 314.726562 616.359375 319.011719 C 612.847656 321.449219 610.839844 325.238281 610.535156 329.195312 C 607.578125 329.585938 604.675781 330.648438 602.0625 332.457031 C 593.246094 338.570312 591.042969 350.683594 597.136719 359.515625 C 601.648438 366.054688 609.445312 368.949219 616.777344 367.535156 C 616.90625 367.765625 617.046875 367.996094 617.199219 368.21875 C 621.472656 374.421875 629.957031 375.972656 636.144531 371.675781 C 641.945312 367.660156 643.660156 359.9375 640.328125 353.878906 "/>
<path style=" stroke:none;fill-rule:nonzero;fill:rgb(94.119263%,93.328857%,85.488892%);fill-opacity:1;" d="M 623.660156 367.269531 C 623.507812 367.046875 623.378906 366.8125 623.242188 366.589844 C 615.925781 368.003906 608.113281 365.109375 603.601562 358.566406 C 597.511719 349.730469 599.714844 337.621094 608.523438 331.515625 C 611.144531 329.699219 614.050781 328.636719 617 328.246094 C 617.304688 324.289062 619.316406 320.492188 622.828125 318.066406 C 623.652344 317.492188 624.53125 317.027344 625.421875 316.660156 C 622.328125 316.359375 619.117188 317.101562 616.359375 319.011719 C 612.847656 321.449219 610.839844 325.238281 610.535156 329.195312 C 607.578125 329.585938 604.675781 330.648438 602.0625 332.457031 C 593.246094 338.570312 591.042969 350.683594 597.136719 359.515625 C 601.648438 366.054688 609.445312 368.949219 616.777344 367.535156 C 616.90625 367.765625 617.046875 367.996094 617.199219 368.21875 C 620.902344 373.585938 627.761719 375.457031 633.554688 373.082031 C 629.695312 372.707031 626.03125 370.707031 623.660156 367.269531 "/>
<path style=" stroke:none;fill-rule:nonzero;fill:rgb(95.289612%,82.348633%,54.508972%);fill-opacity:1;" d="M 623.210938 360.195312 C 626.800781 364.023438 629.535156 360.636719 631.527344 358.171875 C 632.226562 357.300781 632.363281 355.238281 633.667969 353.695312 C 635.078125 352.027344 637.882812 350.792969 639.605469 349.460938 C 636.328125 343.792969 634.300781 342.335938 628.773438 346.460938 C 627.347656 341.898438 636.378906 331.601562 627.578125 328.882812 C 618.914062 326.207031 622.25 339.269531 623.980469 343.058594 C 622.28125 345.128906 620.476562 344.742188 618.621094 344.34375 C 616.808594 343.960938 614.941406 343.578125 613.066406 345.496094 C 606.496094 352.21875 618.152344 349.613281 620.039062 350.953125 C 624.148438 353.855469 613.152344 356.710938 614.621094 361.625 C 616.136719 366.636719 623.964844 364.503906 623.714844 359.84375 L 623.210938 360.195312 "/>
<path style=" stroke:none;fill-rule:nonzero;fill:rgb(74.899292%,57.649231%,35.688782%);fill-opacity:1;" d="M 622.976562 356.605469 C 625.007812 355.183594 629.078125 353.480469 629.453125 350.808594 C 630 346.949219 626.648438 347.925781 624.597656 350.125 C 623.25 347.101562 626.808594 343.34375 626.121094 339.601562 C 622.890625 341.640625 625.800781 343.96875 624.210938 346.207031 C 622.242188 348.933594 621.425781 348.171875 618.363281 348.675781 C 619.683594 350.296875 620.488281 351.769531 622.265625 352.472656 C 620.230469 353.886719 621.527344 354.6875 621.265625 356.300781 L 622.976562 356.605469 "/>
<path style=" stroke:none;fill-rule:nonzero;fill:rgb(75.689697%,19.999695%,19.219971%);fill-opacity:1;" d="M 630.496094 635.664062 L 468.339844 635.664062 L 410.304688 353.351562 L 673.167969 353.351562 L 630.496094 635.664062 "/>
<path style=" stroke:none;fill-rule:nonzero;fill:rgb(100%,100%,100%);fill-opacity:1;" d="M 606.292969 635.664062 L 488.351562 635.664062 L 446.144531 353.351562 L 637.324219 353.351562 L 606.292969 635.664062 "/>
<path style=" stroke:none;fill-rule:nonzero;fill:rgb(75.689697%,19.999695%,19.219971%);fill-opacity:1;" d="M 580.9375 635.664062 L 509.328125 635.664062 L 483.695312 353.351562 L 599.769531 353.351562 L 580.9375 635.664062 "/>
<path style=" stroke:none;fill-rule:nonzero;fill:rgb(100%,100%,100%);fill-opacity:1;" d="M 555.574219 635.664062 L 530.300781 635.664062 L 521.253906 353.351562 L 562.21875 353.351562 L 555.574219 635.664062 "/>
<g clip-path="url(#clip6)" clip-rule="nonzero">
<g clip-path="url(#clip7)" clip-rule="nonzero">
<path style=" stroke:none;fill-rule:nonzero;fill:rgb(84.709167%,36.859131%,30.979919%);fill-opacity:1;" d="M 616.125 547.894531 L 652.003906 547.894531 L 652.003906 481.011719 L 616.125 481.011719 Z M 616.125 547.894531 "/>
</g>
</g>
<path style=" stroke:none;fill-rule:nonzero;fill:rgb(100%,100%,100%);fill-opacity:1;" d="M 616.125 546.242188 C 606.566406 544.441406 596.789062 541.261719 587.496094 537.289062 L 592.933594 455.855469 C 601.75 465.046875 612.054688 473.992188 623.292969 481.011719 L 616.125 546.242188 "/>
<path style=" stroke:none;fill-rule:nonzero;fill:rgb(84.709167%,36.859131%,30.979919%);fill-opacity:1;" d="M 587.496094 537.289062 C 576.75 532.691406 566.644531 527.023438 558.261719 521.15625 L 562.21875 353.351562 L 599.769531 353.351562 L 573.75 353.351562 C 561.722656 386.558594 562.546875 422.042969 588.175781 450.722656 C 589.707031 452.433594 591.292969 454.152344 592.933594 455.855469 L 587.496094 537.289062 M 525.542969 487.191406 C 518.691406 475.640625 514.625 462.632812 513.90625 447.613281 C 513.070312 429.941406 513.738281 400.820312 522.070312 378.734375 L 525.542969 487.191406 "/>
<path style=" stroke:none;fill-rule:nonzero;fill:rgb(100%,100%,100%);fill-opacity:1;" d="M 558.261719 521.15625 C 556.265625 519.757812 554.367188 518.34375 552.578125 516.933594 C 541.328125 508.070312 532.144531 498.316406 525.542969 487.191406 L 522.070312 378.734375 C 526.191406 367.804688 532.191406 358.597656 540.800781 353.351562 L 562.21875 353.351562 L 558.261719 521.15625 "/>
<path style=" stroke:none;fill-rule:nonzero;fill:rgb(100%,100%,100%);fill-opacity:1;" d="M 652.011719 493.378906 C 652.003906 493.378906 652.003906 493.378906 652.003906 493.378906 L 673.167969 353.351562 L 652.011719 493.378906 "/>
<path style=" stroke:none;fill-rule:nonzero;fill:rgb(84.709167%,36.859131%,30.979919%);fill-opacity:1;" d="M 652.003906 493.378906 L 673.167969 353.351562 L 652.003906 493.378906 "/>
<path style=" stroke:none;fill-rule:nonzero;fill:rgb(91.369629%,57.649231%,50.19989%);fill-opacity:1;" d="M 652.003906 493.378906 C 642.019531 491.089844 632.347656 486.671875 623.292969 481.011719 L 637.324219 353.351562 L 673.167969 353.351562 L 652.003906 493.378906 "/>
<path style=" stroke:none;fill-rule:nonzero;fill:rgb(100%,100%,100%);fill-opacity:1;" d="M 623.292969 481.011719 C 612.054688 473.992188 601.75 465.046875 592.933594 455.855469 L 599.769531 353.351562 L 637.324219 353.351562 L 623.292969 481.011719 "/>
<path style=" stroke:none;fill-rule:nonzero;fill:rgb(91.369629%,57.649231%,50.19989%);fill-opacity:1;" d="M 592.933594 455.855469 C 591.292969 454.152344 589.707031 452.433594 588.175781 450.722656 C 562.546875 422.042969 561.722656 386.558594 573.75 353.351562 L 599.769531 353.351562 L 592.933594 455.855469 "/>
<path style=" stroke:none;fill-rule:nonzero;fill:rgb(82.749939%,82.348633%,82.348633%);fill-opacity:1;" d="M 630.496094 635.664062 L 638.523438 582.570312 L 630.496094 635.664062 "/>
<path style=" stroke:none;fill-rule:nonzero;fill:rgb(62.748718%,16.079712%,15.289307%);fill-opacity:1;" d="M 630.496094 635.664062 L 631.953125 626 C 623.796875 625.171875 615.71875 623.945312 607.761719 622.300781 L 612.296875 581.054688 C 618.964844 582.148438 625.679688 582.738281 632.410156 582.738281 C 634.445312 582.738281 636.488281 582.675781 638.523438 582.570312 L 630.496094 635.664062 M 472.621094 530.460938 C 442.070312 483.3125 427.9375 421.617188 448.492188 369.058594 L 472.621094 530.460938 "/>
<path style=" stroke:none;fill-rule:nonzero;fill:rgb(82.749939%,82.348633%,82.348633%);fill-opacity:1;" d="M 607.761719 622.300781 C 599.113281 620.511719 590.605469 618.238281 582.277344 615.464844 L 585.058594 573.8125 C 593.945312 577.0625 603.066406 579.542969 612.296875 581.054688 L 607.761719 622.300781 M 503.144531 567.597656 C 497.933594 562.546875 492.917969 557.167969 488.117188 551.453125 C 482.597656 544.875 477.410156 537.839844 472.621094 530.460938 L 448.492188 369.058594 C 450.582031 363.71875 453.027344 358.46875 455.847656 353.351562 L 446.144531 353.351562 L 483.695312 353.351562 L 486.257812 381.539062 C 480.867188 402.800781 479.519531 425.574219 479.671875 443.984375 C 479.863281 467.597656 486.21875 488.46875 497.621094 506.71875 L 503.144531 567.597656 "/>
<path style=" stroke:none;fill-rule:nonzero;fill:rgb(62.748718%,16.079712%,15.289307%);fill-opacity:1;" d="M 582.277344 615.464844 C 573.398438 612.5 564.71875 608.96875 556.296875 604.859375 L 557.324219 560.894531 C 566.179688 565.914062 575.480469 570.308594 585.058594 573.8125 L 582.277344 615.464844 M 528.796875 588.71875 C 519.820312 582.46875 511.238281 575.433594 503.144531 567.597656 L 497.621094 506.71875 C 505.308594 519.023438 515.292969 530.140625 527.238281 540.101562 L 528.796875 588.71875 M 486.257812 381.539062 L 483.695312 353.351562 L 496.707031 353.351562 C 492.164062 362.019531 488.773438 371.617188 486.257812 381.539062 "/>
<path style=" stroke:none;fill-rule:nonzero;fill:rgb(82.749939%,82.348633%,82.348633%);fill-opacity:1;" d="M 556.296875 604.859375 C 546.785156 600.222656 537.59375 594.851562 528.796875 588.71875 L 527.238281 540.101562 C 528.472656 541.132812 529.722656 542.148438 530.992188 543.15625 C 539.140625 549.574219 547.980469 555.585938 557.324219 560.894531 L 556.296875 604.859375 "/>
<path style=" stroke:none;fill-rule:nonzero;fill:rgb(52.159119%,13.328552%,12.159729%);fill-opacity:1;" d="M 630.496094 635.664062 L 606.292969 635.664062 L 607.761719 622.300781 C 615.71875 623.945312 623.796875 625.171875 631.953125 626 L 630.496094 635.664062 M 488.351562 635.664062 L 468.339844 635.664062 L 456.601562 578.597656 L 449.421875 543.648438 L 422.316406 411.785156 L 410.304688 353.351562 L 446.144531 353.351562 L 448.492188 369.058594 C 427.9375 421.617188 442.070312 483.3125 472.621094 530.460938 L 488.351562 635.664062 "/>
<path style=" stroke:none;fill-rule:nonzero;fill:rgb(69.018555%,68.238831%,68.629456%);fill-opacity:1;" d="M 606.292969 635.664062 L 580.9375 635.664062 L 582.277344 615.464844 C 590.605469 618.238281 599.113281 620.511719 607.761719 622.300781 L 606.292969 635.664062 M 509.328125 635.664062 L 488.351562 635.664062 L 472.621094 530.460938 C 477.410156 537.839844 482.597656 544.875 488.117188 551.453125 C 492.917969 557.167969 497.933594 562.546875 503.144531 567.597656 L 509.328125 635.664062 M 448.492188 369.058594 L 446.144531 353.351562 L 455.847656 353.351562 C 453.027344 358.46875 450.582031 363.71875 448.492188 369.058594 "/>
<path style=" stroke:none;fill-rule:nonzero;fill:rgb(52.159119%,13.328552%,12.159729%);fill-opacity:1;" d="M 580.9375 635.664062 L 555.574219 635.664062 L 556.296875 604.859375 C 564.71875 608.96875 573.398438 612.5 582.277344 615.464844 L 580.9375 635.664062 M 530.300781 635.664062 L 509.328125 635.664062 L 503.144531 567.597656 C 511.238281 575.433594 519.820312 582.46875 528.796875 588.71875 L 530.300781 635.664062 "/>
<path style=" stroke:none;fill-rule:nonzero;fill:rgb(69.018555%,68.238831%,68.629456%);fill-opacity:1;" d="M 555.574219 635.664062 L 530.300781 635.664062 L 528.796875 588.71875 C 537.59375 594.851562 546.785156 600.222656 556.296875 604.859375 L 555.574219 635.664062 "/>
</g>
</svg>
