<?xml version="1.0" encoding="UTF-8"?>
<svg xmlns="http://www.w3.org/2000/svg" xmlns:xlink="http://www.w3.org/1999/xlink" width="810pt" height="809.999993pt" viewBox="0 0 810 809.999993" version="1.2">
<defs>
<clipPath id="clip1">
  <path d="M 29.464844 29.464844 L 780.214844 29.464844 L 780.214844 780.214844 L 29.464844 780.214844 Z M 29.464844 29.464844 "/>
</clipPath>
<clipPath id="clip2">
  <path d="M 136 431.152344 L 673.679688 431.152344 L 673.679688 553.402344 L 136 553.402344 Z M 136 431.152344 "/>
</clipPath>
<clipPath id="clip3">
  <path d="M 141 503 L 667 503 L 667 596.050781 L 141 596.050781 Z M 141 503 "/>
</clipPath>
<clipPath id="clip4">
  <path d="M 135.890625 199.300781 L 673.679688 199.300781 L 673.679688 596.050781 L 135.890625 596.050781 Z M 135.890625 199.300781 "/>
</clipPath>
</defs>
<g id="surface1">
<path style=" stroke:none;fill-rule:nonzero;fill:rgb(100%,100%,100%);fill-opacity:1;" d="M 755.339844 404.839844 C 755.339844 410.574219 755.199219 416.308594 754.917969 422.035156 C 754.636719 427.765625 754.214844 433.484375 753.652344 439.195312 C 753.089844 444.902344 752.390625 450.59375 751.546875 456.269531 C 750.707031 461.941406 749.726562 467.59375 748.605469 473.21875 C 747.488281 478.84375 746.230469 484.4375 744.835938 490.003906 C 743.441406 495.566406 741.914062 501.09375 740.25 506.582031 C 738.582031 512.074219 736.785156 517.519531 734.851562 522.917969 C 732.917969 528.320312 730.855469 533.671875 728.660156 538.96875 C 726.464844 544.269531 724.140625 549.511719 721.6875 554.699219 C 719.234375 559.882812 716.65625 565.003906 713.953125 570.0625 C 711.25 575.125 708.421875 580.113281 705.472656 585.03125 C 702.523438 589.953125 699.457031 594.796875 696.269531 599.566406 C 693.082031 604.335938 689.78125 609.023438 686.363281 613.632812 C 682.949219 618.238281 679.417969 622.761719 675.78125 627.195312 C 672.140625 631.628906 668.394531 635.972656 664.542969 640.222656 C 660.691406 644.472656 656.738281 648.625 652.679688 652.679688 C 648.625 656.738281 644.472656 660.691406 640.222656 664.542969 C 635.972656 668.394531 631.628906 672.140625 627.195312 675.78125 C 622.761719 679.417969 618.238281 682.949219 613.632812 686.363281 C 609.023438 689.78125 604.335938 693.082031 599.566406 696.269531 C 594.796875 699.457031 589.953125 702.527344 585.03125 705.472656 C 580.113281 708.421875 575.121094 711.25 570.0625 713.953125 C 565.003906 716.65625 559.882812 719.238281 554.699219 721.6875 C 549.511719 724.140625 544.269531 726.464844 538.96875 728.660156 C 533.671875 730.855469 528.320312 732.917969 522.917969 734.851562 C 517.519531 736.785156 512.074219 738.582031 506.582031 740.25 C 501.09375 741.914062 495.566406 743.441406 490.003906 744.835938 C 484.4375 746.230469 478.84375 747.488281 473.21875 748.605469 C 467.59375 749.726562 461.941406 750.707031 456.269531 751.546875 C 450.59375 752.390625 444.902344 753.089844 439.195312 753.652344 C 433.484375 754.214844 427.765625 754.636719 422.035156 754.917969 C 416.308594 755.199219 410.574219 755.339844 404.839844 755.339844 C 399.101562 755.339844 393.371094 755.199219 387.640625 754.917969 C 381.910156 754.636719 376.191406 754.214844 370.484375 753.652344 C 364.773438 753.089844 359.082031 752.390625 353.410156 751.546875 C 347.734375 750.707031 342.085938 749.726562 336.457031 748.605469 C 330.832031 747.488281 325.238281 746.230469 319.671875 744.835938 C 314.109375 743.441406 308.582031 741.914062 303.09375 740.25 C 297.601562 738.582031 292.160156 736.785156 286.757812 734.851562 C 281.355469 732.917969 276.007812 730.855469 270.707031 728.660156 C 265.40625 726.464844 260.164062 724.140625 254.980469 721.6875 C 249.792969 719.238281 244.671875 716.65625 239.613281 713.953125 C 234.554688 711.25 229.5625 708.421875 224.644531 705.472656 C 219.722656 702.527344 214.878906 699.457031 210.109375 696.269531 C 205.339844 693.082031 200.652344 689.78125 196.042969 686.363281 C 191.4375 682.949219 186.914062 679.417969 182.480469 675.78125 C 178.046875 672.140625 173.707031 668.394531 169.453125 664.542969 C 165.203125 660.691406 161.050781 656.738281 156.996094 652.679688 C 152.9375 648.625 148.984375 644.472656 145.132812 640.222656 C 141.28125 635.972656 137.535156 631.628906 133.894531 627.195312 C 130.257812 622.761719 126.730469 618.238281 123.3125 613.632812 C 119.894531 609.023438 116.59375 604.335938 113.40625 599.566406 C 110.21875 594.796875 107.152344 589.953125 104.203125 585.03125 C 101.253906 580.113281 98.425781 575.125 95.722656 570.0625 C 93.019531 565.003906 90.441406 559.882812 87.988281 554.699219 C 85.535156 549.511719 83.210938 544.269531 81.015625 538.96875 C 78.820312 533.671875 76.757812 528.320312 74.824219 522.917969 C 72.890625 517.519531 71.09375 512.074219 69.429688 506.582031 C 67.761719 501.09375 66.234375 495.566406 64.839844 490.003906 C 63.445312 484.4375 62.191406 478.84375 61.070312 473.21875 C 59.953125 467.59375 58.972656 461.941406 58.128906 456.269531 C 57.289062 450.59375 56.585938 444.902344 56.023438 439.195312 C 55.460938 433.484375 55.039062 427.765625 54.757812 422.035156 C 54.476562 416.308594 54.335938 410.574219 54.335938 404.839844 C 54.335938 399.101562 54.476562 393.371094 54.757812 387.640625 C 55.039062 381.910156 55.460938 376.191406 56.023438 370.484375 C 56.585938 364.773438 57.289062 359.082031 58.128906 353.410156 C 58.972656 347.734375 59.953125 342.085938 61.070312 336.457031 C 62.191406 330.832031 63.445312 325.238281 64.839844 319.671875 C 66.234375 314.109375 67.761719 308.582031 69.429688 303.09375 C 71.09375 297.605469 72.890625 292.160156 74.824219 286.757812 C 76.757812 281.355469 78.820312 276.007812 81.015625 270.707031 C 83.210938 265.40625 85.535156 260.164062 87.988281 254.980469 C 90.441406 249.792969 93.019531 244.671875 95.722656 239.613281 C 98.425781 234.554688 101.253906 229.5625 104.203125 224.644531 C 107.152344 219.722656 110.21875 214.878906 113.40625 210.109375 C 116.59375 205.339844 119.894531 200.652344 123.3125 196.042969 C 126.730469 191.4375 130.257812 186.917969 133.894531 182.480469 C 137.535156 178.046875 141.28125 173.707031 145.132812 169.457031 C 148.984375 165.203125 152.9375 161.050781 156.996094 156.996094 C 161.050781 152.941406 165.203125 148.984375 169.453125 145.132812 C 173.707031 141.28125 178.046875 137.535156 182.480469 133.894531 C 186.914062 130.257812 191.4375 126.730469 196.042969 123.3125 C 200.652344 119.894531 205.339844 116.59375 210.109375 113.40625 C 214.878906 110.21875 219.722656 107.152344 224.644531 104.203125 C 229.5625 101.253906 234.554688 98.425781 239.613281 95.722656 C 244.671875 93.019531 249.792969 90.441406 254.980469 87.988281 C 260.164062 85.535156 265.40625 83.210938 270.707031 81.015625 C 276.007812 78.820312 281.355469 76.757812 286.757812 74.824219 C 292.160156 72.890625 297.601562 71.09375 303.09375 69.429688 C 308.582031 67.761719 314.109375 66.234375 319.671875 64.839844 C 325.238281 63.445312 330.832031 62.191406 336.457031 61.070312 C 342.085938 59.953125 347.734375 58.972656 353.410156 58.128906 C 359.082031 57.289062 364.773438 56.585938 370.484375 56.023438 C 376.191406 55.460938 381.910156 55.039062 387.640625 54.757812 C 393.371094 54.476562 399.101562 54.335938 404.839844 54.335938 C 410.574219 54.335938 416.308594 54.476562 422.035156 54.757812 C 427.765625 55.039062 433.484375 55.460938 439.195312 56.023438 C 444.902344 56.585938 450.59375 57.289062 456.269531 58.128906 C 461.941406 58.972656 467.59375 59.953125 473.21875 61.070312 C 478.84375 62.191406 484.4375 63.445312 490.003906 64.839844 C 495.566406 66.234375 501.09375 67.761719 506.582031 69.429688 C 512.074219 71.09375 517.519531 72.890625 522.917969 74.824219 C 528.320312 76.757812 533.671875 78.820312 538.96875 81.015625 C 544.269531 83.210938 549.511719 85.535156 554.699219 87.988281 C 559.882812 90.441406 565.003906 93.019531 570.0625 95.722656 C 575.121094 98.425781 580.113281 101.253906 585.03125 104.203125 C 589.953125 107.152344 594.796875 110.21875 599.566406 113.40625 C 604.335938 116.59375 609.023438 119.894531 613.632812 123.3125 C 618.238281 126.730469 622.761719 130.257812 627.195312 133.894531 C 631.628906 137.535156 635.972656 141.28125 640.222656 145.132812 C 644.472656 148.984375 648.625 152.941406 652.679688 156.996094 C 656.738281 161.050781 660.691406 165.203125 664.542969 169.457031 C 668.394531 173.707031 672.140625 178.046875 675.78125 182.480469 C 679.417969 186.917969 682.949219 191.4375 686.363281 196.042969 C 689.78125 200.652344 693.082031 205.339844 696.269531 210.109375 C 699.457031 214.878906 702.523438 219.722656 705.472656 224.644531 C 708.421875 229.5625 711.25 234.554688 713.953125 239.613281 C 716.65625 244.671875 719.234375 249.792969 721.6875 254.980469 C 724.140625 260.164062 726.464844 265.40625 728.660156 270.707031 C 730.855469 276.007812 732.917969 281.355469 734.851562 286.757812 C 736.785156 292.160156 738.582031 297.605469 740.25 303.09375 C 741.914062 308.582031 743.441406 314.109375 744.835938 319.671875 C 746.230469 325.238281 747.488281 330.832031 748.605469 336.457031 C 749.726562 342.085938 750.707031 347.734375 751.546875 353.410156 C 752.390625 359.082031 753.089844 364.773438 753.652344 370.484375 C 754.214844 376.191406 754.636719 381.910156 754.917969 387.640625 C 755.199219 393.371094 755.339844 399.101562 755.339844 404.839844 Z M 755.339844 404.839844 "/>
<g clip-path="url(#clip1)" clip-rule="nonzero">
<path style=" stroke:none;fill-rule:nonzero;fill:rgb(0%,0%,0%);fill-opacity:1;" d="M 405.234375 780.207031 C 387.527344 780.207031 369.566406 778.945312 351.894531 776.421875 C 147.03125 747.242188 4.074219 556.820312 33.230469 351.925781 C 59.402344 168.105469 218.960938 29.472656 404.367188 29.472656 C 422.097656 29.472656 440.070312 30.753906 457.730469 33.253906 C 662.617188 62.453125 805.597656 252.878906 776.429688 457.757812 C 750.242188 641.59375 590.664062 780.207031 405.234375 780.207031 Z M 404.367188 79.15625 C 243.523438 79.15625 105.144531 199.433594 82.429688 358.9375 C 57.128906 536.699219 181.152344 701.933594 358.898438 727.261719 C 374.253906 729.449219 389.851562 730.550781 405.234375 730.550781 C 566.09375 730.550781 704.53125 610.265625 727.246094 450.746094 C 752.539062 273 628.5 107.773438 450.730469 82.4375 C 435.363281 80.242188 419.792969 79.15625 404.367188 79.15625 Z M 404.367188 79.15625 "/>
</g>
<path style=" stroke:none;fill-rule:nonzero;fill:rgb(98.039246%,98.039246%,98.039246%);fill-opacity:1;" d="M 641.882812 227.984375 L 641.832031 235.988281 L 640.601562 412.199219 C 640.601562 431.878906 625.984375 447.816406 607.96875 447.816406 L 205.296875 447.816406 C 187.28125 447.816406 172.664062 431.878906 172.664062 412.199219 L 172.664062 235.988281 C 172.8125 218.566406 176.589844 203.105469 197.808594 200.765625 C 200.191406 200.503906 202.785156 200.421875 205.59375 200.503906 L 609.347656 200.421875 C 611.449219 200.421875 613.484375 200.503906 615.457031 200.765625 C 630.515625 202.394531 641.882812 210.597656 641.882812 227.984375 "/>
<path style=" stroke:none;fill-rule:nonzero;fill:rgb(6.269836%,5.879211%,5.099487%);fill-opacity:1;" d="M 635.820312 487.503906 L 635.820312 486.152344 C 635.707031 485.824219 635.609375 485.394531 635.59375 484.867188 C 635.542969 484.109375 635.65625 483.46875 635.820312 482.992188 L 635.820312 481.65625 C 635.117188 482.183594 634.753906 483.585938 634.820312 484.917969 C 634.886719 486.152344 635.261719 487.09375 635.820312 487.503906 Z M 635.820312 486.761719 L 635.820312 482.382812 C 635.492188 483.058594 635.34375 484.011719 635.394531 484.917969 C 635.425781 485.660156 635.59375 486.285156 635.820312 486.761719 Z M 635.820312 486.761719 L 635.820312 482.382812 C 635.492188 483.058594 635.34375 484.011719 635.394531 484.917969 C 635.425781 485.660156 635.59375 486.285156 635.820312 486.761719 Z M 625.195312 487.570312 L 625.210938 487.570312 C 625.210938 487.570312 625.210938 487.570312 625.210938 487.554688 C 625.210938 487.570312 625.195312 487.570312 625.195312 487.570312 Z M 552.144531 495.523438 L 553.277344 502.09375 C 553.328125 502.390625 553.507812 502.621094 553.738281 502.816406 L 553.738281 487.125 L 551.488281 487.125 L 552.128906 495.425781 C 552.128906 495.457031 552.128906 495.488281 552.144531 495.523438 Z M 626.773438 495.523438 C 626.789062 495.488281 626.789062 495.457031 626.789062 495.425781 L 627.445312 486.828125 L 625.34375 486.828125 L 625.34375 502.667969 C 625.492188 502.503906 625.589844 502.308594 625.621094 502.09375 Z M 279.105469 486.546875 L 278.613281 486.566406 C 278.613281 486.8125 278.613281 487.058594 278.613281 487.324219 L 279.121094 487.324219 Z M 278.628906 481.148438 L 278.972656 481.164062 L 278.957031 480.390625 L 278.660156 480.375 L 278.613281 480.390625 C 278.613281 480.636719 278.613281 480.882812 278.613281 481.148438 Z M 260.988281 487.207031 L 261.007812 487.207031 C 261.007812 487.191406 261.007812 487.191406 261.007812 487.191406 Z M 461.304688 486.746094 L 460.8125 486.746094 C 460.8125 486.992188 460.8125 487.257812 460.8125 487.503906 L 461.324219 487.503906 Z M 460.832031 481.328125 L 461.175781 481.34375 L 461.140625 480.585938 L 460.863281 480.570312 L 460.8125 480.570312 C 460.8125 480.835938 460.8125 481.082031 460.8125 481.328125 Z M 443.191406 487.371094 L 443.191406 487.386719 Z M 443.191406 487.371094 "/>
<path style=" stroke:none;fill-rule:nonzero;fill:rgb(28.62854%,29.019165%,29.40979%);fill-opacity:1;" d="M 641.882812 227.902344 L 641.832031 235.988281 L 172.664062 235.988281 C 172.8125 218.386719 176.589844 202.773438 197.808594 200.421875 L 615.457031 200.421875 C 630.515625 202.066406 641.882812 210.332031 641.882812 227.902344 "/>
<path style=" stroke:none;fill-rule:nonzero;fill:rgb(6.269836%,5.879211%,5.099487%);fill-opacity:1;" d="M 324.402344 525.476562 L 324.402344 502.242188 C 324.402344 491.488281 332.496094 482.761719 342.464844 482.761719 L 377.53125 482.761719 C 387.5 482.761719 395.597656 491.488281 395.597656 502.242188 L 395.597656 514.476562 L 396.351562 514.476562 L 396.351562 502.242188 C 396.351562 491.078125 387.910156 481.988281 377.53125 481.988281 L 342.464844 481.988281 C 332.085938 481.988281 323.644531 491.078125 323.644531 502.242188 L 323.644531 525.476562 Z M 467.152344 481.988281 L 432.074219 481.988281 C 422.890625 481.988281 415.222656 489.117188 413.578125 498.488281 L 414.351562 498.488281 C 415.976562 489.546875 423.300781 482.761719 432.074219 482.761719 L 467.152344 482.761719 C 474.90625 482.761719 481.539062 488.0625 484.085938 495.472656 L 484.890625 495.472656 C 482.296875 487.636719 475.316406 481.988281 467.152344 481.988281 Z M 413.761719 536.773438 L 413.25 536.773438 C 413.25 537.019531 413.25 537.28125 413.25 537.53125 L 413.777344 537.53125 Z M 413.269531 531.339844 L 413.613281 531.355469 L 413.597656 530.597656 L 413.300781 530.582031 L 413.25 530.582031 C 413.25 530.84375 413.25 531.089844 413.25 531.355469 Z M 395.628906 537.398438 L 395.644531 537.398438 L 395.644531 537.382812 Z M 234.007812 536.773438 L 233.511719 536.773438 C 233.511719 537.019531 233.511719 537.28125 233.511719 537.53125 L 234.023438 537.53125 Z M 233.53125 531.339844 L 233.875 531.355469 L 233.839844 530.597656 L 233.5625 530.582031 L 233.511719 530.582031 C 233.511719 530.84375 233.511719 531.089844 233.511719 531.355469 Z M 215.90625 537.382812 L 215.90625 537.398438 L 215.890625 537.398438 C 215.890625 537.398438 215.890625 537.398438 215.90625 537.382812 "/>
<path style=" stroke:none;fill-rule:nonzero;fill:rgb(59.21936%,9.408569%,17.649841%);fill-opacity:1;" d="M 202.078125 547.378906 L 156.488281 547.378906 C 152.546875 547.378906 143.859375 550.472656 143.859375 554.308594 L 143.859375 563.8125 C 143.859375 564.007812 143.875 564.207031 143.890625 564.402344 L 216.285156 564.402344 C 216.316406 564.207031 216.316406 564.007812 216.316406 563.8125 L 216.316406 554.308594 C 216.316406 550.472656 206.003906 547.378906 202.078125 547.378906 Z M 381.816406 547.378906 L 336.226562 547.378906 C 332.300781 547.378906 323.613281 550.472656 323.613281 554.308594 L 323.613281 563.8125 C 323.613281 564.007812 323.628906 564.207031 323.644531 564.402344 L 396.039062 564.402344 C 396.054688 564.207031 396.074219 564.007812 396.074219 563.8125 L 396.074219 554.308594 C 396.074219 550.472656 385.757812 547.378906 381.816406 547.378906 Z M 471.441406 547.378906 L 425.847656 547.378906 C 421.90625 547.378906 413.21875 550.472656 413.21875 554.308594 L 413.21875 563.8125 C 413.21875 564.007812 413.234375 564.207031 413.25 564.402344 L 485.664062 564.402344 C 485.679688 564.207031 485.679688 564.007812 485.679688 563.8125 L 485.679688 554.308594 C 485.679688 550.472656 475.363281 547.378906 471.441406 547.378906 Z M 651.734375 547.378906 L 606.160156 547.378906 C 602.21875 547.378906 593.53125 550.472656 593.53125 554.308594 L 593.53125 563.8125 C 593.53125 564.007812 593.546875 564.207031 593.5625 564.402344 L 665.957031 564.402344 C 665.976562 564.207031 665.992188 564.007812 665.992188 563.8125 L 665.992188 554.308594 C 665.992188 550.472656 655.679688 547.378906 651.734375 547.378906 Z M 562.128906 547.378906 L 516.539062 547.378906 C 512.597656 547.378906 503.910156 550.472656 503.910156 554.308594 L 503.910156 563.8125 C 503.910156 564.007812 503.925781 564.207031 503.941406 564.402344 L 576.351562 564.402344 C 576.367188 564.207031 576.386719 564.007812 576.386719 563.8125 L 576.386719 554.308594 C 576.386719 550.472656 566.070312 547.378906 562.128906 547.378906 Z M 291.683594 547.378906 L 246.09375 547.378906 C 242.167969 547.378906 233.480469 550.472656 233.480469 554.308594 L 233.480469 563.8125 C 233.480469 564.007812 233.496094 564.207031 233.511719 564.402344 L 305.90625 564.402344 C 305.925781 564.207031 305.941406 564.007812 305.941406 563.8125 L 305.941406 554.308594 C 305.941406 550.472656 295.625 547.378906 291.683594 547.378906 Z M 261.398438 514.195312 C 261.417969 514.015625 261.417969 513.816406 261.417969 513.601562 L 261.417969 504.101562 C 261.417969 500.265625 251.121094 497.167969 247.175781 497.167969 L 201.585938 497.167969 C 197.644531 497.167969 188.957031 500.265625 188.957031 504.101562 L 188.957031 513.601562 C 188.957031 513.816406 188.972656 514.015625 188.988281 514.195312 Z M 625.605469 514.574219 C 625.621094 514.378906 625.621094 514.179688 625.621094 513.980469 L 625.621094 504.480469 C 625.621094 500.660156 615.308594 497.546875 611.382812 497.546875 L 565.792969 497.546875 C 561.851562 497.546875 553.164062 500.660156 553.164062 504.480469 L 553.164062 513.980469 C 553.164062 514.179688 553.179688 514.378906 553.195312 514.574219 Z M 533.207031 514.394531 C 533.226562 514.195312 533.242188 514 533.242188 513.800781 L 533.242188 504.300781 C 533.242188 500.464844 522.925781 497.351562 518.984375 497.351562 L 473.394531 497.351562 C 469.46875 497.351562 460.78125 500.464844 460.78125 504.300781 L 460.78125 513.800781 C 460.78125 514 460.796875 514.195312 460.8125 514.394531 Z M 443.585938 514.394531 C 443.617188 514.195312 443.617188 514 443.617188 513.800781 L 443.617188 504.300781 C 443.617188 500.464844 433.304688 497.351562 429.378906 497.351562 L 383.789062 497.351562 C 379.847656 497.351562 371.15625 500.464844 371.15625 504.300781 L 371.15625 513.800781 C 371.15625 514 371.175781 514.195312 371.191406 514.394531 Z M 278.613281 514.195312 C 278.59375 514.015625 278.578125 513.816406 278.578125 513.601562 L 278.578125 504.101562 C 278.578125 500.265625 287.265625 497.167969 291.191406 497.167969 L 336.785156 497.167969 C 340.726562 497.167969 351.039062 500.265625 351.039062 504.101562 L 351.039062 513.601562 C 351.039062 513.816406 351.023438 514.015625 351.007812 514.195312 L 278.613281 514.195312 "/>
<g clip-path="url(#clip2)" clip-rule="nonzero">
<path style=" stroke:none;fill-rule:nonzero;fill:rgb(76.469421%,10.198975%,22.349548%);fill-opacity:1;" d="M 673.515625 534.402344 C 673.449219 535.800781 672.921875 536.839844 672.28125 536.839844 L 665.546875 536.804688 L 665.546875 552.152344 C 665.546875 552.480469 665.515625 552.792969 665.5 553.125 L 593.628906 553.125 C 593.613281 552.792969 593.597656 552.480469 593.597656 552.152344 L 593.597656 536.9375 L 587.40625 536.953125 C 586.765625 536.953125 586.238281 535.917969 586.171875 534.515625 C 586.074219 532.917969 586.617188 531.519531 587.339844 531.4375 L 593.152344 530.761719 C 593.1875 530.746094 593.21875 530.746094 593.21875 530.746094 L 593.597656 530.761719 L 593.597656 503.296875 L 575.925781 503.296875 L 575.925781 530.710938 L 576.828125 530.679688 C 576.828125 530.679688 576.894531 530.679688 576.910156 530.679688 L 582.726562 531.355469 C 583.449219 531.4375 583.988281 532.835938 583.90625 534.402344 C 583.824219 535.800781 583.300781 536.839844 582.675781 536.839844 L 575.925781 536.804688 L 575.925781 552.152344 C 575.925781 552.480469 575.910156 552.792969 575.894531 553.125 L 504.023438 553.125 C 504.007812 552.792969 503.972656 552.480469 503.972656 552.152344 L 503.972656 536.9375 L 497.78125 536.953125 C 497.160156 536.953125 496.617188 535.917969 496.550781 534.515625 C 496.46875 532.917969 497.011719 531.519531 497.71875 531.4375 L 503.546875 530.761719 C 503.5625 530.746094 503.597656 530.746094 503.628906 530.746094 L 503.972656 530.761719 L 503.972656 503.097656 L 485.234375 503.097656 L 485.234375 530.710938 L 486.121094 530.679688 C 486.15625 530.679688 486.1875 530.679688 486.222656 530.679688 L 492.035156 531.355469 C 492.757812 531.4375 493.300781 532.835938 493.199219 534.402344 C 493.136719 535.800781 492.609375 536.839844 491.96875 536.839844 L 485.234375 536.804688 L 485.234375 552.152344 C 485.234375 552.480469 485.203125 552.792969 485.203125 553.125 L 413.316406 553.125 C 413.316406 552.792969 413.285156 552.480469 413.285156 552.152344 L 413.285156 536.9375 L 407.09375 536.953125 C 406.453125 536.953125 405.925781 535.917969 405.859375 534.515625 C 405.777344 532.917969 406.304688 531.519531 407.027344 531.4375 L 412.839844 530.761719 C 412.875 530.746094 412.90625 530.746094 412.9375 530.746094 L 413.285156 530.761719 L 413.285156 503.097656 L 395.628906 503.097656 L 395.628906 530.710938 L 396.515625 530.679688 C 396.546875 530.679688 396.582031 530.679688 396.597656 530.679688 L 402.429688 531.355469 C 403.132812 531.4375 403.675781 532.835938 403.59375 534.402344 C 403.527344 535.800781 402.988281 536.839844 402.363281 536.839844 L 395.628906 536.804688 L 395.628906 552.152344 C 395.628906 552.480469 395.597656 552.792969 395.578125 553.125 L 323.710938 553.125 C 323.695312 552.792969 323.660156 552.480469 323.660156 552.152344 L 323.660156 536.9375 L 317.46875 536.953125 C 316.847656 536.953125 316.304688 535.917969 316.238281 534.515625 C 316.15625 532.917969 316.699219 531.519531 317.402344 531.4375 L 323.234375 530.761719 C 323.265625 530.746094 323.285156 530.746094 323.316406 530.746094 L 323.660156 530.761719 L 323.660156 502.917969 L 305.496094 502.917969 L 305.496094 530.710938 L 306.382812 530.679688 C 306.417969 530.679688 306.449219 530.679688 306.484375 530.679688 L 312.296875 531.355469 C 313.003906 531.4375 313.542969 532.835938 313.460938 534.402344 C 313.398438 535.800781 312.855469 536.839844 312.230469 536.839844 L 305.496094 536.804688 L 305.496094 552.152344 C 305.496094 552.480469 305.464844 552.792969 305.449219 553.125 L 233.578125 553.125 C 233.5625 552.792969 233.53125 552.480469 233.53125 552.152344 L 233.53125 536.9375 L 227.355469 536.953125 C 226.714844 536.953125 226.171875 535.917969 226.105469 534.515625 C 226.023438 532.917969 226.566406 531.519531 227.289062 531.4375 L 233.101562 530.761719 C 233.136719 530.746094 233.152344 530.746094 233.183594 530.746094 L 233.53125 530.761719 L 233.53125 502.917969 L 215.875 502.917969 L 215.875 530.710938 L 216.761719 530.679688 C 216.761719 530.679688 216.828125 530.679688 216.859375 530.679688 L 222.671875 531.355469 C 223.394531 531.4375 223.9375 532.835938 223.855469 534.402344 C 223.773438 535.800781 223.25 536.839844 222.609375 536.839844 L 215.875 536.804688 L 215.875 552.152344 C 215.875 552.480469 215.839844 552.792969 215.839844 553.125 L 143.972656 553.125 C 143.957031 552.792969 143.921875 552.480469 143.921875 552.152344 L 143.921875 536.9375 L 137.730469 536.953125 C 137.089844 536.953125 136.566406 535.917969 136.5 534.515625 C 136.417969 532.917969 136.945312 531.519531 137.667969 531.4375 L 143.480469 530.761719 C 143.511719 530.746094 143.546875 530.746094 143.578125 530.746094 L 143.921875 530.761719 L 143.921875 502.027344 C 143.921875 491.058594 152.183594 482.167969 162.367188 482.167969 L 181.894531 482.167969 C 182.109375 481.625 182.421875 481.261719 182.765625 481.230469 L 188.578125 480.554688 C 188.613281 480.554688 188.644531 480.554688 188.675781 480.554688 L 189.023438 480.570312 L 189.023438 451.820312 C 189.023438 440.851562 197.28125 431.960938 207.464844 431.960938 L 242.53125 431.960938 C 252.730469 431.960938 260.972656 440.851562 260.972656 451.820312 L 260.972656 480.503906 L 261.875 480.457031 C 261.894531 480.457031 261.925781 480.457031 261.957031 480.472656 L 267.773438 481.148438 C 268.148438 481.179688 268.460938 481.574219 268.675781 482.167969 L 271.515625 482.167969 C 271.730469 481.625 272.042969 481.261719 272.386719 481.230469 L 278.203125 480.554688 C 278.203125 480.554688 278.265625 480.554688 278.285156 480.554688 L 278.644531 480.570312 L 278.644531 451.820312 C 278.644531 440.851562 286.890625 431.960938 297.089844 431.960938 L 332.152344 431.960938 C 342.335938 431.960938 350.597656 440.851562 350.597656 451.820312 L 350.597656 480.503906 L 351.484375 480.457031 C 351.515625 480.457031 351.546875 480.457031 351.546875 480.457031 L 357.394531 481.148438 C 357.757812 481.179688 358.085938 481.574219 358.296875 482.167969 L 364.179688 482.167969 C 364.390625 481.738281 364.65625 481.445312 364.964844 481.425781 L 370.78125 480.734375 C 370.8125 480.734375 370.847656 480.734375 370.847656 480.734375 L 371.222656 480.753906 L 371.222656 452 C 371.222656 441.035156 379.46875 432.140625 389.667969 432.140625 L 424.730469 432.140625 C 434.914062 432.140625 443.175781 441.035156 443.175781 452 L 443.175781 480.6875 L 444.0625 480.652344 C 444.09375 480.652344 444.128906 480.652344 444.160156 480.652344 L 449.972656 481.328125 C 450.300781 481.378906 450.582031 481.691406 450.796875 482.167969 L 453.800781 482.167969 C 453.996094 481.738281 454.277344 481.445312 454.574219 481.425781 L 460.402344 480.734375 C 460.4375 480.734375 460.453125 480.734375 460.484375 480.734375 L 460.832031 480.753906 L 460.832031 452 C 460.832031 441.035156 469.089844 432.140625 479.273438 432.140625 L 514.355469 432.140625 C 524.535156 432.140625 532.796875 441.035156 532.796875 452 L 532.796875 480.6875 L 533.683594 480.652344 C 533.71875 480.652344 533.75 480.652344 533.78125 480.652344 L 539.597656 481.328125 C 539.910156 481.378906 540.203125 481.691406 540.417969 482.167969 L 546.296875 482.167969 C 546.476562 481.839844 546.726562 481.640625 546.972656 481.609375 L 552.785156 480.933594 C 552.816406 480.917969 552.851562 480.917969 552.882812 480.917969 L 553.226562 480.933594 L 553.226562 452.199219 C 553.226562 441.230469 561.488281 432.339844 571.671875 432.339844 L 606.734375 432.339844 C 616.933594 432.339844 625.195312 441.230469 625.195312 452.199219 L 625.195312 480.882812 L 626.082031 480.851562 C 626.117188 480.835938 626.148438 480.851562 626.164062 480.851562 L 631.980469 481.527344 C 632.273438 481.558594 632.519531 481.789062 632.71875 482.167969 L 647.105469 482.167969 C 657.289062 482.167969 665.546875 491.058594 665.546875 502.027344 L 665.546875 530.710938 L 666.433594 530.679688 C 666.46875 530.679688 666.5 530.679688 666.535156 530.679688 L 672.347656 531.355469 C 673.070312 531.4375 673.613281 532.835938 673.515625 534.402344 "/>
</g>
<path style=" stroke:none;fill-rule:nonzero;fill:rgb(25.489807%,25.099182%,25.878906%);fill-opacity:1;" d="M 589.753906 514.574219 L 589.753906 503.542969 L 587.226562 503.542969 L 587.226562 514.574219 L 582.59375 514.574219 L 582.59375 518.558594 L 587.226562 518.558594 L 587.226562 532.097656 C 587.734375 531.667969 588.375 531.371094 589.046875 531.289062 C 589.292969 531.257812 589.523438 531.257812 589.753906 531.273438 L 589.753906 518.558594 L 594.386719 518.558594 L 594.386719 514.574219 Z M 591.167969 538.75 L 589.753906 538.75 L 589.753906 537.679688 C 589.03125 537.613281 588.324219 537.398438 587.703125 536.96875 C 587.535156 536.855469 587.371094 536.738281 587.226562 536.589844 L 587.226562 538.75 L 577.632812 538.75 C 577.832031 540.757812 577.617188 542.699219 577.238281 544.628906 L 577.238281 546.355469 L 592.546875 546.355469 C 591.773438 543.886719 591.132812 541.367188 591.167969 538.75 Z M 592.496094 545.367188 L 593.648438 551.921875 C 593.695312 552.21875 593.84375 552.449219 594.074219 552.628906 L 594.074219 537.792969 C 593.792969 537.828125 593.515625 537.828125 593.203125 537.792969 C 592.925781 537.761719 592.660156 537.695312 592.382812 537.644531 C 592.300781 537.628906 592.21875 537.613281 592.136719 537.597656 C 592.136719 537.597656 592.101562 537.597656 592.035156 537.597656 C 591.988281 537.597656 591.953125 537.578125 591.90625 537.578125 L 592.480469 545.253906 C 592.496094 545.285156 592.496094 545.320312 592.496094 545.367188 Z M 577.519531 545.367188 C 577.519531 545.367188 577.535156 545.285156 577.535156 545.253906 L 578.191406 536.671875 L 576.089844 536.671875 L 576.089844 552.5 C 576.238281 552.332031 576.335938 552.136719 576.386719 551.921875 Z M 665.992188 551.921875 C 665.941406 552.152344 665.84375 552.351562 665.695312 552.515625 L 665.695312 536.804688 L 667.796875 536.804688 L 667.140625 545.253906 C 667.140625 545.285156 667.140625 545.320312 667.140625 545.367188 L 665.992188 551.921875 "/>
<g clip-path="url(#clip3)" clip-rule="nonzero">
<path style=" stroke:none;fill-rule:nonzero;fill:rgb(25.489807%,25.099182%,25.878906%);fill-opacity:1;" d="M 269.644531 568.453125 L 274.261719 568.453125 L 274.261719 564.46875 L 269.644531 564.46875 L 269.644531 553.4375 L 267.097656 553.4375 L 267.097656 564.46875 L 262.46875 564.46875 L 262.46875 568.453125 L 267.097656 568.453125 L 267.097656 588.660156 L 180.023438 588.660156 L 180.023438 568.453125 L 184.652344 568.453125 L 184.652344 564.46875 L 180.023438 564.46875 L 180.023438 553.601562 L 179.710938 553.601562 L 179.710938 553.4375 L 177.492188 553.4375 L 177.492188 564.46875 L 172.863281 564.46875 L 172.863281 568.453125 L 177.492188 568.453125 L 177.492188 588.660156 L 141.3125 588.660156 L 141.3125 596.265625 L 306.84375 596.265625 L 306.84375 588.660156 L 269.644531 588.660156 Z M 629.695312 588.660156 L 629.695312 568.453125 L 634.328125 568.453125 L 634.328125 564.46875 L 629.695312 564.46875 L 629.695312 553.4375 L 627.167969 553.4375 L 627.167969 564.46875 L 622.535156 564.46875 L 622.535156 568.453125 L 627.167969 568.453125 L 627.167969 588.660156 L 540.089844 588.660156 L 540.089844 568.453125 L 544.703125 568.453125 L 544.703125 564.46875 L 540.089844 564.46875 L 540.089844 553.4375 L 537.542969 553.4375 L 537.542969 564.46875 L 532.914062 564.46875 L 532.914062 568.453125 L 537.542969 568.453125 L 537.542969 588.660156 L 501.363281 588.660156 L 501.363281 596.265625 L 666.910156 596.265625 L 666.910156 588.660156 Z M 215.613281 552.5625 C 215.757812 552.398438 215.859375 552.21875 215.890625 552.003906 L 216.941406 545.992188 L 232.117188 545.992188 L 233.167969 552.003906 C 233.21875 552.285156 233.367188 552.515625 233.59375 552.710938 L 233.59375 549.832031 L 233.449219 549.832031 L 233.449219 536.589844 L 231.34375 536.589844 L 231.476562 538.371094 L 225.546875 538.371094 L 225.546875 518.179688 L 230.179688 518.179688 L 230.179688 514.179688 L 225.546875 514.179688 L 225.546875 503.148438 L 223.019531 503.148438 L 223.019531 514.179688 L 218.386719 514.179688 L 218.386719 518.179688 L 223.019531 518.179688 L 223.019531 538.371094 L 217.582031 538.371094 L 217.714844 536.738281 L 215.613281 536.738281 L 215.613281 538.371094 L 215.578125 538.371094 L 215.578125 545.992188 L 215.613281 545.992188 Z M 449.382812 568.453125 L 454.015625 568.453125 L 454.015625 564.46875 L 449.382812 564.46875 L 449.382812 553.4375 L 446.855469 553.4375 L 446.855469 564.46875 L 442.222656 564.46875 L 442.222656 568.453125 L 446.855469 568.453125 L 446.855469 588.660156 L 359.777344 588.660156 L 359.777344 568.453125 L 364.390625 568.453125 L 364.390625 564.46875 L 359.777344 564.46875 L 359.777344 553.4375 L 357.230469 553.4375 L 357.230469 564.46875 L 352.601562 564.46875 L 352.601562 568.453125 L 357.230469 568.453125 L 357.230469 588.660156 L 321.050781 588.660156 L 321.050781 596.265625 L 486.597656 596.265625 L 486.597656 588.660156 L 449.382812 588.660156 Z M 306.566406 545.992188 L 322.25 545.992188 L 323.300781 552.003906 C 323.347656 552.285156 323.515625 552.53125 323.742188 552.710938 L 323.742188 550.109375 L 323.613281 550.109375 L 323.613281 537.019531 L 321.511719 537.019531 L 321.609375 538.371094 L 315.171875 538.371094 L 315.171875 518.179688 L 319.785156 518.179688 L 319.785156 514.179688 L 315.171875 514.179688 L 315.171875 503.148438 L 312.625 503.148438 L 312.625 514.179688 L 307.992188 514.179688 L 307.992188 518.179688 L 312.625 518.179688 L 312.625 538.371094 L 307.1875 538.371094 L 307.304688 536.871094 L 305.777344 536.871094 L 305.777344 549.832031 L 305.203125 549.832031 L 305.203125 552.582031 C 305.367188 552.414062 305.464844 552.234375 305.511719 552.003906 Z M 504.386719 546.175781 L 504.386719 538.566406 L 497.355469 538.566406 L 497.355469 518.363281 L 501.988281 518.363281 L 501.988281 514.378906 L 497.355469 514.378906 L 497.355469 503.34375 L 494.828125 503.34375 L 494.828125 514.378906 L 490.195312 514.378906 L 490.195312 518.363281 L 494.828125 518.363281 L 494.828125 538.566406 L 486.925781 538.566406 L 487.058594 536.871094 L 485.515625 536.871094 L 485.515625 550.488281 L 486.269531 546.175781 Z M 395.644531 552.003906 C 395.597656 552.21875 395.496094 552.398438 395.367188 552.5625 L 395.367188 550.109375 L 395.496094 550.109375 L 395.496094 536.738281 L 397.453125 536.738281 L 397.304688 538.566406 L 405.203125 538.566406 L 405.203125 518.363281 L 400.589844 518.363281 L 400.589844 514.378906 L 405.203125 514.378906 L 405.203125 503.34375 L 407.75 503.34375 L 407.75 514.378906 L 412.382812 514.378906 L 412.382812 518.363281 L 407.75 518.363281 L 407.75 531.453125 C 407.488281 531.503906 407.257812 531.652344 407.09375 531.882812 C 407.078125 531.882812 407.058594 531.867188 407.042969 531.867188 C 406.878906 531.816406 406.746094 531.914062 406.699219 532.0625 C 406.632812 532.226562 406.566406 532.441406 406.5 532.671875 C 406.4375 532.804688 406.386719 532.9375 406.335938 533.082031 C 406.289062 533.117188 406.238281 533.167969 406.207031 533.214844 C 405.695312 533.808594 405.84375 534.53125 406.238281 535.175781 C 406.320312 536.148438 406.714844 536.96875 407.683594 537.085938 C 407.699219 537.085938 407.714844 537.085938 407.75 537.085938 L 407.75 538.566406 L 411.230469 538.566406 L 411.082031 536.589844 L 413.332031 536.589844 L 413.332031 537.84375 L 413.054688 537.84375 L 413.054688 552.382812 C 412.988281 552.269531 412.9375 552.136719 412.90625 552.003906 L 411.886719 546.175781 L 396.664062 546.175781 L 395.644531 552.003906 "/>
</g>
<path style=" stroke:none;fill-rule:nonzero;fill:rgb(25.489807%,25.099182%,25.878906%);fill-opacity:1;" d="M 575.941406 537.398438 L 575.957031 537.398438 L 575.957031 537.382812 C 575.957031 537.382812 575.941406 537.398438 575.941406 537.398438 Z M 502.875 545.367188 L 504.023438 551.921875 C 504.074219 552.21875 504.253906 552.449219 504.484375 552.644531 L 504.484375 536.953125 L 502.234375 536.953125 L 502.875 545.253906 C 502.875 545.285156 502.875 545.320312 502.875 545.367188 Z M 142.394531 545.320312 L 141.753906 537.019531 L 144.003906 537.019531 L 144.003906 552.710938 C 143.777344 552.53125 143.59375 552.285156 143.546875 552.003906 L 142.394531 545.433594 C 142.394531 545.402344 142.394531 545.367188 142.394531 545.320312 "/>
<path style=" stroke:none;fill-rule:nonzero;fill:rgb(6.269836%,5.879211%,5.099487%);fill-opacity:1;" d="M 593.5625 531.355469 C 593.5625 531.089844 593.5625 530.84375 593.5625 530.582031 L 593.613281 530.582031 L 593.910156 530.597656 L 593.925781 531.355469 L 593.582031 531.339844 L 593.5625 531.355469 "/>
<path style=" stroke:none;fill-rule:nonzero;fill:rgb(6.269836%,5.879211%,5.099487%);fill-opacity:1;" d="M 594.089844 537.53125 L 593.5625 537.53125 C 593.5625 537.28125 593.5625 537.019531 593.5625 536.773438 L 594.074219 536.773438 L 594.089844 537.53125 "/>
<g clip-path="url(#clip4)" clip-rule="nonzero">
<path style=" stroke:none;fill-rule:nonzero;fill:rgb(6.269836%,5.879211%,5.099487%);fill-opacity:1;" d="M 672.921875 534.597656 C 672.855469 535.882812 672.378906 536.671875 672.070312 536.671875 L 665.710938 536.640625 L 665.710938 531.289062 L 666.269531 531.257812 L 672.085938 531.949219 C 672.480469 531.980469 673.003906 533.066406 672.921875 534.597656 Z M 666.1875 545.285156 L 665.710938 548.035156 L 665.710938 537.414062 L 666.796875 537.414062 Z M 665.039062 563.8125 C 665.039062 563.894531 665.039062 563.960938 665.039062 564.023438 L 634.558594 564.023438 L 634.558594 564.007812 L 629.941406 564.007812 L 629.941406 553.714844 L 664.941406 553.714844 C 665.007812 553.914062 665.039062 554.113281 665.039062 554.308594 Z M 633.800781 568.011719 L 629.171875 568.011719 L 629.171875 588.199219 L 627.398438 588.199219 L 627.398438 568.765625 L 627.429688 568.765625 L 627.429688 568.011719 L 622.765625 568.011719 L 622.765625 564.78125 L 633.800781 564.78125 Z M 666.386719 588.957031 L 666.386719 595.804688 L 501.609375 595.804688 L 501.609375 588.957031 Z M 533.160156 568.011719 L 533.160156 564.78125 L 544.179688 564.78125 L 544.179688 568.011719 L 540.320312 568.011719 L 540.320312 567.976562 L 539.5625 567.976562 L 539.5625 588.199219 L 537.789062 588.199219 L 537.789062 567.992188 L 537.019531 567.992188 L 537.019531 568.011719 Z M 532.386719 564.023438 L 503.726562 564.023438 C 503.726562 563.960938 503.726562 563.894531 503.726562 563.8125 L 503.726562 554.308594 C 503.726562 554.113281 503.808594 553.914062 503.890625 553.714844 L 537.019531 553.714844 L 537.019531 564.007812 L 532.386719 564.007812 Z M 503.382812 502.242188 L 503.382812 502.933594 L 485.417969 502.933594 L 485.417969 502.242188 C 485.417969 491.078125 476.957031 481.988281 466.578125 481.988281 L 461.570312 481.988281 L 461.570312 452.214844 C 461.570312 441.480469 469.683594 432.734375 479.636719 432.734375 L 514.699219 432.734375 C 523.503906 432.734375 530.828125 439.550781 532.4375 448.527344 L 532.4375 448.921875 L 532.503906 448.921875 C 532.667969 449.992188 532.765625 451.09375 532.765625 452.214844 L 532.765625 481.988281 L 522.203125 481.988281 C 511.824219 481.988281 503.382812 491.078125 503.382812 502.242188 Z M 503.382812 514.015625 L 502.363281 514.015625 L 502.363281 514 L 497.75 514 L 497.75 503.707031 L 503.382812 503.707031 Z M 503.382812 530.582031 L 497.75 531.238281 L 497.75 518.757812 L 502.363281 518.757812 L 502.363281 514.773438 L 503.382812 514.773438 Z M 503.382812 536.773438 L 497.75 536.789062 L 497.75 536.195312 C 497.488281 536.179688 497.222656 536.113281 496.976562 535.980469 L 496.976562 536.046875 C 496.847656 535.703125 496.75 535.257812 496.714844 534.699219 C 496.667969 533.90625 496.796875 533.230469 496.976562 532.753906 L 496.976562 532.835938 C 497.207031 532.621094 497.453125 532.441406 497.75 532.308594 L 497.75 532.011719 L 503.382812 531.339844 Z M 503.382812 549.253906 L 502.675781 545.21875 L 502.101562 537.53125 L 503.382812 537.53125 Z M 497.75 538.171875 L 497.75 537.546875 L 501.332031 537.546875 L 501.378906 538.171875 Z M 495.203125 514 L 495.203125 503.722656 L 496.976562 503.722656 L 496.976562 514 Z M 496.976562 538.171875 L 495.203125 538.171875 L 495.203125 518.757812 L 495.238281 518.757812 L 495.238281 517.984375 L 490.574219 517.984375 L 490.574219 514.773438 L 501.609375 514.773438 L 501.609375 517.984375 L 496.976562 517.984375 L 496.976562 531.46875 C 496.253906 531.980469 495.878906 533.398438 495.960938 534.746094 C 496.027344 536 496.417969 536.953125 496.976562 537.347656 Z M 485.417969 514.015625 L 485.417969 503.707031 L 494.449219 503.707031 L 494.449219 514 L 489.816406 514 L 489.816406 514.015625 Z M 494.449219 538.171875 L 487.191406 538.171875 L 487.253906 537.414062 L 491.753906 537.429688 L 491.773438 537.429688 C 492.625 537.429688 493.300781 536.277344 493.382812 534.648438 C 493.464844 533.035156 492.921875 531.304688 491.871094 531.191406 L 486.039062 530.5 L 485.925781 530.5 L 485.417969 530.515625 L 485.417969 514.773438 L 489.816406 514.773438 L 489.816406 518.757812 L 494.449219 518.757812 Z M 485.417969 536.640625 L 485.417969 531.289062 L 485.957031 531.257812 L 491.789062 531.949219 C 492.167969 531.980469 492.691406 533.066406 492.609375 534.597656 C 492.558594 535.882812 492.082031 536.671875 491.773438 536.671875 L 491.753906 536.671875 Z M 486.417969 538.171875 L 485.628906 538.171875 C 485.628906 538.433594 485.644531 538.683594 485.644531 538.945312 L 486.367188 538.945312 L 485.875 545.285156 L 485.792969 545.796875 L 485.695312 545.796875 C 485.679688 546.042969 485.679688 546.289062 485.664062 546.554688 L 485.417969 548.035156 L 485.417969 537.414062 L 486.484375 537.414062 Z M 484.726562 563.8125 C 484.726562 563.894531 484.726562 563.960938 484.726562 564.023438 L 454.246094 564.023438 L 454.246094 564.007812 L 449.628906 564.007812 L 449.628906 553.714844 L 484.628906 553.714844 C 484.695312 553.914062 484.726562 554.113281 484.726562 554.308594 Z M 453.488281 568.011719 L 448.859375 568.011719 L 448.859375 588.199219 L 447.082031 588.199219 L 447.082031 568.765625 L 447.117188 568.765625 L 447.117188 568.011719 L 442.453125 568.011719 L 442.453125 564.78125 L 453.488281 564.78125 Z M 486.074219 588.957031 L 486.074219 595.804688 L 321.296875 595.804688 L 321.296875 588.957031 Z M 352.847656 568.011719 L 352.847656 564.78125 L 363.882812 564.78125 L 363.882812 568.011719 L 360.007812 568.011719 L 360.007812 567.976562 L 359.25 567.976562 L 359.25 588.199219 L 357.476562 588.199219 L 357.476562 567.992188 L 356.707031 567.992188 L 356.707031 568.011719 Z M 352.074219 564.023438 L 323.429688 564.023438 C 323.414062 563.960938 323.414062 563.894531 323.414062 563.8125 L 323.414062 554.308594 C 323.414062 554.113281 323.496094 553.914062 323.578125 553.714844 L 356.707031 553.714844 L 356.707031 564.007812 L 352.074219 564.007812 Z M 323.070312 502.242188 L 323.070312 502.75 L 305.660156 502.75 L 305.660156 502.242188 C 305.660156 491.078125 297.21875 481.988281 286.839844 481.988281 L 279.367188 481.988281 L 279.367188 452.015625 C 279.367188 441.296875 287.480469 432.554688 297.433594 432.554688 L 332.515625 432.554688 C 341.332031 432.554688 348.707031 439.421875 350.265625 448.476562 L 350.265625 448.921875 L 350.332031 448.921875 C 350.480469 449.925781 350.5625 450.964844 350.5625 452.015625 L 350.5625 481.988281 L 341.890625 481.988281 C 331.511719 481.988281 323.070312 491.078125 323.070312 502.242188 Z M 323.070312 513.816406 L 315.546875 513.816406 L 315.546875 503.507812 L 323.070312 503.507812 Z M 313.019531 513.816406 L 313.019531 503.542969 L 314.777344 503.542969 L 314.777344 513.816406 Z M 319.40625 517.800781 L 314.777344 517.800781 L 314.777344 537.992188 L 313.019531 537.992188 L 313.019531 536.804688 C 313.347656 536.3125 313.59375 535.554688 313.625 534.648438 C 313.691406 533.578125 313.460938 532.472656 313.019531 531.800781 L 313.019531 518.558594 L 313.035156 518.558594 L 313.035156 517.800781 L 308.386719 517.800781 L 308.386719 514.589844 L 319.40625 514.589844 Z M 305.660156 513.816406 L 305.660156 503.507812 L 312.246094 503.507812 L 312.246094 513.816406 Z M 307.617188 514.589844 L 307.617188 518.558594 L 312.246094 518.558594 L 312.246094 531.207031 C 312.199219 531.207031 312.164062 531.191406 312.117188 531.191406 L 306.300781 530.5 L 306.1875 530.5 L 305.660156 530.515625 L 305.660156 514.589844 Z M 312.871094 534.597656 C 312.804688 535.882812 312.328125 536.671875 312.015625 536.671875 L 305.660156 536.640625 L 305.660156 531.289062 L 306.21875 531.257812 L 312.035156 531.949219 C 312.410156 531.980469 312.953125 533.066406 312.871094 534.597656 Z M 312.246094 537.992188 L 307.46875 537.992188 L 307.5 537.414062 L 312.015625 537.429688 C 312.097656 537.429688 312.164062 537.414062 312.246094 537.398438 Z M 306.136719 545.285156 L 305.660156 548.035156 L 305.660156 537.414062 L 306.746094 537.414062 Z M 304.988281 563.8125 C 304.988281 563.894531 304.988281 563.960938 304.988281 564.023438 L 274.507812 564.023438 L 274.507812 564.007812 L 269.875 564.007812 L 269.875 553.714844 L 304.890625 553.714844 C 304.957031 553.914062 304.988281 554.113281 304.988281 554.308594 Z M 273.75 568.011719 L 269.121094 568.011719 L 269.121094 588.199219 L 267.34375 588.199219 L 267.34375 568.765625 L 267.378906 568.765625 L 267.378906 568.011719 L 262.714844 568.011719 L 262.714844 564.78125 L 273.75 564.78125 Z M 306.335938 588.957031 L 306.335938 595.804688 L 141.558594 595.804688 L 141.558594 588.957031 Z M 173.109375 568.011719 L 173.109375 564.78125 L 184.128906 564.78125 L 184.128906 568.011719 L 180.269531 568.011719 L 180.269531 567.976562 L 179.496094 567.976562 L 179.496094 588.199219 L 177.722656 588.199219 L 177.722656 567.992188 L 176.96875 567.992188 L 176.96875 568.011719 Z M 172.335938 564.023438 L 143.675781 564.023438 C 143.675781 563.960938 143.675781 563.894531 143.675781 563.8125 L 143.675781 554.308594 C 143.675781 554.113281 143.757812 553.914062 143.824219 553.714844 L 176.96875 553.714844 L 176.96875 564.007812 L 172.335938 564.007812 Z M 179.496094 553.734375 L 179.496094 564.023438 L 177.722656 564.023438 L 177.722656 553.734375 Z M 144.085938 502.242188 C 144.085938 491.488281 152.183594 482.761719 162.152344 482.761719 L 197.21875 482.761719 C 207.1875 482.761719 215.285156 491.488281 215.285156 502.242188 L 215.285156 552.367188 C 215.285156 552.5625 215.265625 552.761719 215.265625 552.960938 L 144.121094 552.960938 C 144.105469 552.761719 144.085938 552.5625 144.085938 552.367188 Z M 183.160156 481.824219 L 188.988281 481.148438 L 188.988281 481.988281 L 182.894531 481.988281 C 182.996094 481.886719 183.078125 481.824219 183.160156 481.824219 Z M 189.761719 452.015625 C 189.761719 441.296875 197.859375 432.554688 207.8125 432.554688 L 242.890625 432.554688 C 251.777344 432.554688 259.183594 439.503906 260.675781 448.625 L 260.675781 448.921875 L 260.726562 448.921875 C 260.875 449.925781 260.957031 450.964844 260.957031 452.015625 L 260.957031 481.9375 C 261.007812 481.953125 261.070312 481.96875 261.121094 481.988281 L 251.757812 481.988281 C 241.378906 481.988281 232.9375 491.078125 232.9375 502.242188 L 232.9375 502.75 L 216.054688 502.75 L 216.054688 502.242188 C 216.054688 491.078125 207.597656 481.988281 197.21875 481.988281 L 189.761719 481.988281 Z M 261.710938 481.082031 L 262.269531 481.046875 L 268.085938 481.722656 C 268.199219 481.738281 268.296875 481.839844 268.414062 481.988281 L 261.710938 481.988281 Z M 272.699219 481.066406 C 272.238281 481.113281 271.878906 481.476562 271.632812 481.988281 L 269.285156 481.988281 C 269.039062 481.425781 268.660156 481.03125 268.183594 480.984375 L 262.351562 480.308594 L 262.238281 480.289062 L 261.710938 480.324219 L 261.710938 452.015625 C 261.710938 450.964844 261.628906 449.925781 261.5 448.921875 L 278.824219 448.921875 C 278.695312 449.925781 278.613281 450.964844 278.613281 452.015625 L 278.613281 481.988281 L 272.519531 481.988281 C 272.601562 481.886719 272.699219 481.824219 272.78125 481.824219 L 278.613281 481.148438 L 278.613281 480.390625 Z M 261.941406 564.023438 L 233.300781 564.023438 C 233.300781 563.960938 233.285156 563.894531 233.285156 563.8125 L 233.285156 554.308594 C 233.285156 554.113281 233.316406 553.914062 233.382812 553.714844 L 266.574219 553.714844 L 266.574219 564.007812 L 261.941406 564.007812 Z M 217.121094 537.414062 L 217.074219 537.992188 L 217.039062 537.992188 C 217.058594 538.089844 217.058594 538.1875 217.058594 538.304688 L 216.53125 545.285156 L 216.054688 548.035156 L 216.054688 537.414062 Z M 216.613281 531.257812 L 222.425781 531.949219 C 222.804688 531.980469 223.332031 533.066406 223.265625 534.597656 C 223.199219 535.882812 222.722656 536.671875 222.410156 536.671875 L 222.394531 536.671875 L 216.054688 536.640625 L 216.054688 531.289062 Z M 218.007812 514.589844 L 218.007812 518.558594 L 222.640625 518.558594 L 222.640625 530.84375 C 222.921875 531.042969 223.148438 531.339844 223.3125 531.683594 C 223.085938 531.402344 222.820312 531.222656 222.507812 531.191406 L 216.679688 530.5 L 216.5625 530.5 L 216.054688 530.515625 L 216.054688 514.589844 Z M 222.640625 513.816406 L 216.054688 513.816406 L 216.054688 503.507812 L 222.640625 503.507812 Z M 230.558594 513.816406 L 225.925781 513.816406 L 225.925781 503.507812 L 232.9375 503.507812 L 232.9375 513.816406 Z M 225.925781 537.992188 L 225.925781 536.558594 C 226.222656 537.167969 226.648438 537.546875 227.140625 537.546875 L 230.886719 537.546875 L 230.933594 537.992188 Z M 217.84375 537.992188 L 217.894531 537.414062 L 222.394531 537.429688 L 222.410156 537.429688 C 222.476562 537.429688 222.558594 537.414062 222.640625 537.398438 L 222.640625 537.992188 Z M 230.984375 538.75 L 231.476562 545.285156 C 231.492188 545.335938 231.492188 545.382812 231.492188 545.433594 L 231.527344 545.597656 L 217.238281 545.597656 L 217.269531 545.433594 C 217.285156 545.382812 217.285156 545.335938 217.285156 545.285156 L 217.78125 538.75 Z M 231.789062 537.992188 L 231.691406 537.992188 L 231.65625 537.53125 L 232.9375 537.53125 C 232.9375 537.28125 232.9375 537.019531 232.9375 536.773438 L 227.140625 536.789062 C 226.828125 536.789062 226.335938 536 226.269531 534.699219 C 226.1875 533.167969 226.730469 532.0625 227.109375 532.03125 L 232.9375 531.355469 C 232.9375 531.089844 232.9375 530.84375 232.9375 530.582031 L 227.027344 531.273438 C 226.550781 531.320312 226.1875 531.699219 225.925781 532.261719 L 225.925781 518.558594 L 230.558594 518.558594 L 230.558594 514.589844 L 232.9375 514.589844 L 232.9375 549.253906 L 232.25 545.21875 L 231.757812 538.75 L 231.789062 538.75 C 231.789062 538.5 231.789062 538.253906 231.789062 537.992188 Z M 223.394531 513.816406 L 223.394531 503.542969 L 225.171875 503.542969 L 225.171875 513.816406 Z M 229.800781 514.589844 L 229.800781 517.800781 L 225.925781 517.800781 L 225.925781 517.769531 L 225.171875 517.769531 L 225.171875 537.992188 L 223.394531 537.992188 L 223.394531 536.804688 C 223.742188 536.3125 223.972656 535.554688 224.019531 534.648438 C 224.070312 533.578125 223.855469 532.472656 223.394531 531.800781 L 223.394531 517.800781 L 218.765625 517.800781 L 218.765625 514.589844 Z M 184.898438 564.78125 L 216.070312 564.78125 L 216.105469 564.4375 C 216.121094 564.238281 216.136719 564.023438 216.136719 563.8125 L 216.136719 554.308594 C 216.136719 554.03125 216.089844 553.765625 215.988281 553.503906 L 216.023438 553.023438 C 216.039062 552.8125 216.054688 552.582031 216.054688 552.367188 L 216.054688 552.234375 C 216.070312 552.152344 216.121094 552.070312 216.136719 552.003906 L 217.105469 546.355469 L 231.65625 546.355469 L 232.644531 552.003906 C 232.691406 552.234375 232.789062 552.464844 232.953125 552.664062 C 232.953125 552.695312 232.953125 552.730469 232.953125 552.777344 C 232.691406 553.253906 232.527344 553.765625 232.527344 554.308594 L 232.527344 563.8125 C 232.527344 564.023438 232.542969 564.238281 232.5625 564.4375 L 232.59375 564.78125 L 261.941406 564.78125 L 261.941406 568.765625 L 266.574219 568.765625 L 266.574219 588.199219 L 180.269531 588.199219 L 180.269531 568.765625 L 184.898438 568.765625 Z M 180.269531 564.007812 L 180.269531 553.714844 L 215.429688 553.714844 L 215.429688 554.722656 L 215.382812 554.722656 L 215.382812 563.8125 C 215.382812 563.894531 215.382812 563.960938 215.367188 564.023438 L 184.898438 564.023438 L 184.898438 564.007812 Z M 269.121094 553.734375 L 269.121094 564.007812 L 267.34375 564.007812 L 267.34375 553.734375 Z M 304.90625 552.152344 L 304.90625 552.234375 C 304.875 552.21875 304.855469 552.183594 304.855469 552.183594 C 304.855469 552.285156 304.875 552.398438 304.875 552.53125 L 304.875 552.597656 C 304.875 552.710938 304.875 552.84375 304.855469 552.960938 L 233.726562 552.960938 C 233.710938 552.761719 233.710938 552.5625 233.710938 552.367188 L 233.710938 514.589844 L 233.875 514.589844 L 233.875 513.816406 L 233.710938 513.816406 L 233.710938 503.507812 L 233.875 503.507812 L 233.875 502.75 L 233.710938 502.75 L 233.710938 502.242188 C 233.710938 491.488281 241.808594 482.761719 251.757812 482.761719 L 286.839844 482.761719 C 296.792969 482.761719 304.90625 491.488281 304.90625 502.242188 L 304.90625 552.019531 L 304.839844 552.070312 C 304.855469 552.101562 304.890625 552.136719 304.90625 552.152344 Z M 460.8125 481.988281 L 455.082031 481.988281 L 460.8125 481.328125 L 460.8125 480.570312 L 454.886719 481.246094 C 454.492188 481.296875 454.164062 481.574219 453.914062 481.988281 L 451.386719 481.988281 C 451.140625 481.527344 450.796875 481.214844 450.367188 481.164062 L 444.554688 480.488281 L 444.441406 480.488281 L 443.914062 480.503906 L 443.914062 452.214844 C 443.914062 451.09375 443.816406 449.992188 443.667969 448.921875 L 461.058594 448.921875 C 460.894531 449.992188 460.8125 451.09375 460.8125 452.214844 Z M 443.914062 481.988281 L 443.914062 481.261719 L 444.472656 481.246094 L 450.285156 481.921875 C 450.335938 481.9375 450.386719 481.953125 450.433594 481.988281 Z M 441.695312 564.023438 L 413.039062 564.023438 C 413.039062 563.960938 413.039062 563.894531 413.039062 563.8125 L 413.039062 554.308594 C 413.039062 554.113281 413.070312 553.914062 413.121094 553.714844 L 446.328125 553.714844 L 446.328125 564.007812 L 441.695312 564.007812 Z M 364.636719 564.78125 L 395.824219 564.78125 L 395.859375 564.4375 C 395.875 564.238281 395.890625 564.023438 395.890625 563.8125 L 395.890625 554.308594 C 395.890625 554.03125 395.824219 553.765625 395.742188 553.503906 L 395.761719 553.023438 C 395.777344 552.8125 395.792969 552.582031 395.792969 552.367188 L 395.792969 552.234375 C 395.824219 552.152344 395.859375 552.070312 395.875 552.003906 L 396.828125 546.554688 L 411.445312 546.554688 L 412.398438 552.003906 C 412.429688 552.234375 412.546875 552.464844 412.710938 552.664062 C 412.710938 552.695312 412.710938 552.730469 412.710938 552.777344 C 412.445312 553.253906 412.265625 553.765625 412.265625 554.308594 L 412.265625 563.8125 C 412.265625 564.023438 412.28125 564.238281 412.300781 564.4375 L 412.332031 564.78125 L 441.695312 564.78125 L 441.695312 568.765625 L 446.328125 568.765625 L 446.328125 588.199219 L 360.007812 588.199219 L 360.007812 568.765625 L 364.636719 568.765625 Z M 360.007812 553.714844 L 395.167969 553.714844 L 395.167969 554.722656 L 395.121094 554.722656 L 395.121094 563.8125 C 395.121094 563.894531 395.121094 563.960938 395.121094 564.023438 L 364.636719 564.023438 L 364.636719 564.007812 L 360.007812 564.007812 Z M 408.128906 514 L 408.128906 503.707031 L 412.691406 503.707031 L 412.691406 514 Z M 397.023438 545.433594 C 397.023438 545.382812 397.042969 545.335938 397.042969 545.285156 L 397.519531 538.945312 L 410.625 538.945312 C 410.605469 538.683594 410.589844 538.433594 410.574219 538.171875 L 408.128906 538.171875 L 408.128906 537.546875 L 410.640625 537.546875 L 411.230469 545.285156 C 411.230469 545.335938 411.230469 545.382812 411.246094 545.433594 L 411.3125 545.796875 L 396.960938 545.796875 Z M 400.195312 514.773438 L 400.195312 518.757812 L 404.828125 518.757812 L 404.828125 538.171875 L 397.582031 538.171875 L 397.632812 537.414062 L 402.148438 537.429688 C 403.019531 537.429688 403.675781 536.277344 403.757812 534.648438 C 403.839844 533.035156 403.296875 531.304688 402.246094 531.191406 L 396.433594 530.5 L 396.320312 530.5 L 395.792969 530.515625 L 395.792969 514.773438 Z M 404.828125 514 L 400.195312 514 L 400.195312 514.015625 L 395.792969 514.015625 L 395.792969 503.707031 L 404.828125 503.707031 Z M 406.878906 537.546875 L 407.371094 537.546875 L 407.371094 538.171875 L 405.597656 538.171875 L 405.597656 536.378906 C 405.894531 537.101562 406.335938 537.546875 406.878906 537.546875 Z M 405.597656 514.015625 L 405.597656 503.722656 L 407.371094 503.722656 L 407.371094 514.015625 Z M 411.988281 514.773438 L 411.988281 517.984375 L 408.128906 517.984375 L 408.128906 517.96875 L 407.371094 517.96875 L 407.371094 531.207031 L 406.765625 531.273438 C 406.238281 531.320312 405.84375 531.800781 405.597656 532.441406 L 405.597656 517.984375 L 400.964844 517.984375 L 400.964844 514.773438 Z M 395.792969 536.640625 L 395.792969 531.289062 L 396.351562 531.257812 L 402.164062 531.949219 C 402.542969 531.980469 403.085938 533.066406 403.003906 534.597656 C 402.9375 535.882812 402.460938 536.671875 402.148438 536.671875 Z M 396.746094 538.945312 L 396.269531 545.285156 L 395.792969 548.035156 L 395.792969 537.414062 L 396.878906 537.414062 L 396.8125 538.171875 L 396.746094 538.171875 C 396.695312 538.433594 396.648438 538.683594 396.597656 538.945312 Z M 406.878906 536.789062 C 406.566406 536.789062 406.089844 536 406.023438 534.699219 C 405.941406 533.167969 406.46875 532.0625 406.863281 532.03125 L 412.691406 531.355469 C 412.691406 531.089844 412.691406 530.84375 412.691406 530.582031 L 408.128906 531.109375 L 408.128906 518.757812 L 412.691406 518.757812 L 412.691406 549.253906 L 411.988281 545.21875 L 411.410156 537.53125 L 412.691406 537.53125 C 412.691406 537.28125 412.691406 537.019531 412.691406 536.773438 Z M 443.160156 452.214844 L 443.160156 481.988281 L 431.515625 481.988281 C 421.132812 481.988281 412.691406 491.078125 412.691406 502.242188 L 412.691406 502.933594 L 395.792969 502.933594 L 395.792969 502.242188 C 395.792969 491.078125 387.351562 481.988281 376.972656 481.988281 L 371.964844 481.988281 L 371.964844 452.214844 C 371.964844 441.480469 380.058594 432.734375 390.011719 432.734375 L 425.09375 432.734375 C 435.046875 432.734375 443.160156 441.480469 443.160156 452.214844 Z M 351.335938 481.082031 L 351.878906 481.046875 L 357.707031 481.722656 C 357.804688 481.738281 357.921875 481.839844 358.035156 481.988281 L 351.335938 481.988281 Z M 371.191406 481.328125 L 371.191406 481.988281 L 365.460938 481.988281 Z M 365.277344 481.246094 C 364.882812 481.296875 364.554688 481.574219 364.308594 481.988281 L 358.90625 481.988281 C 358.644531 481.425781 358.265625 481.03125 357.789062 480.984375 L 351.976562 480.308594 L 351.84375 480.289062 L 351.335938 480.324219 L 351.335938 452.015625 C 351.335938 450.964844 351.253906 449.925781 351.105469 448.921875 L 371.453125 448.921875 C 371.289062 449.992188 371.191406 451.09375 371.191406 452.214844 L 371.191406 480.570312 Z M 359.25 553.734375 L 359.25 564.023438 L 357.476562 564.023438 L 357.476562 553.734375 Z M 323.859375 552.960938 C 323.84375 552.761719 323.84375 552.5625 323.84375 552.367188 L 323.84375 502.242188 C 323.84375 491.488281 331.9375 482.761719 341.890625 482.761719 L 376.972656 482.761719 C 386.925781 482.761719 395.039062 491.488281 395.039062 502.242188 L 395.039062 552.367188 C 395.039062 552.5625 395.019531 552.761719 395.003906 552.960938 Z M 448.859375 553.734375 L 448.859375 564.007812 L 447.082031 564.007812 L 447.082031 553.734375 Z M 484.644531 552.152344 L 484.644531 552.234375 C 484.628906 552.21875 484.609375 552.183594 484.609375 552.183594 C 484.59375 552.285156 484.628906 552.398438 484.628906 552.53125 L 484.628906 552.597656 C 484.628906 552.710938 484.609375 552.84375 484.59375 552.960938 L 413.480469 552.960938 C 413.464844 552.761719 413.449219 552.5625 413.449219 552.367188 L 413.449219 502.242188 C 413.449219 491.488281 421.5625 482.761719 431.515625 482.761719 L 466.578125 482.761719 C 476.546875 482.761719 484.644531 491.488281 484.644531 502.242188 L 484.644531 552.019531 L 484.59375 552.070312 C 484.609375 552.101562 484.628906 552.136719 484.644531 552.152344 Z M 173.78125 412.199219 L 173.78125 237.089844 L 640.699219 237.089844 L 639.5 412.199219 C 639.5 425.09375 632.980469 436.355469 623.390625 442.285156 C 620.121094 436.242188 614.042969 432.175781 607.097656 432.175781 L 572.015625 432.175781 C 563.179688 432.175781 555.742188 438.761719 553.738281 447.636719 L 553.738281 446.714844 L 532.8125 446.714844 C 530.582031 438.21875 523.320312 431.976562 514.699219 431.976562 L 479.636719 431.976562 C 471.027344 431.976562 463.753906 438.21875 461.519531 446.714844 L 443.207031 446.714844 C 440.957031 438.21875 433.699219 431.976562 425.09375 431.976562 L 390.011719 431.976562 C 380.996094 431.976562 373.441406 438.828125 371.617188 447.949219 L 371.617188 446.714844 L 350.660156 446.714844 C 348.492188 438.136719 341.183594 431.78125 332.515625 431.78125 L 297.433594 431.78125 C 288.546875 431.78125 281.074219 438.449219 279.121094 447.375 L 279.121094 446.714844 L 261.054688 446.714844 C 258.886719 438.136719 251.5625 431.78125 242.890625 431.78125 L 207.8125 431.78125 C 200.042969 431.78125 193.339844 436.882812 190.484375 444.128906 C 190.53125 443.667969 190.597656 443.207031 190.699219 442.761719 C 180.644531 436.984375 173.78125 425.457031 173.78125 412.199219 Z M 173.8125 233.914062 C 173.832031 233.453125 173.832031 232.992188 173.863281 232.53125 C 173.878906 231.90625 173.914062 231.277344 173.945312 230.652344 C 173.960938 230.324219 173.976562 229.996094 174.011719 229.648438 C 174.058594 228.859375 174.140625 228.066406 174.226562 227.277344 C 174.226562 227.144531 174.242188 227.015625 174.257812 226.867188 C 175.6875 214.253906 180.894531 203.746094 197.921875 201.871094 C 199.648438 201.671875 201.535156 201.574219 203.558594 201.574219 C 204.230469 201.574219 204.902344 201.589844 205.59375 201.605469 L 609.347656 201.523438 C 611.679688 201.523438 613.566406 201.621094 615.34375 201.871094 C 624.835938 202.890625 640.765625 207.648438 640.78125 227.96875 L 640.765625 228.28125 L 640.714844 234.902344 L 173.796875 234.902344 C 173.796875 234.574219 173.8125 234.242188 173.8125 233.914062 Z M 623.390625 442.300781 L 623.636719 442.300781 L 623.636719 442.730469 C 623.554688 442.582031 623.472656 442.449219 623.390625 442.300781 Z M 625.164062 452.414062 L 625.164062 481.988281 L 611.828125 481.988281 C 601.449219 481.988281 593.007812 491.078125 593.007812 502.242188 L 593.007812 503.128906 L 576.105469 503.128906 L 576.105469 502.242188 C 576.105469 491.078125 567.648438 481.988281 557.285156 481.988281 L 553.96875 481.988281 L 553.96875 452.414062 C 553.96875 441.660156 562.0625 432.933594 572.015625 432.933594 L 607.097656 432.933594 C 614.472656 432.933594 620.828125 437.722656 623.636719 444.558594 L 623.636719 444.691406 C 623.636719 444.691406 623.652344 444.671875 623.667969 444.671875 C 624.621094 447.042969 625.164062 449.664062 625.164062 452.414062 Z M 622.011719 564.023438 L 593.351562 564.023438 C 593.351562 563.960938 593.351562 563.894531 593.351562 563.8125 L 593.351562 554.308594 C 593.351562 554.113281 593.382812 553.914062 593.433594 553.714844 L 626.640625 553.714844 L 626.640625 564.007812 L 622.011719 564.007812 Z M 577.191406 537.414062 L 576.582031 545.285156 L 576.105469 548.035156 L 576.105469 537.414062 Z M 576.664062 531.257812 L 582.480469 531.949219 C 582.855469 531.980469 583.398438 533.066406 583.316406 534.597656 C 583.25 535.882812 582.773438 536.671875 582.460938 536.671875 L 576.105469 536.640625 L 576.105469 531.289062 Z M 582.214844 514.953125 L 582.214844 518.9375 L 586.847656 518.9375 L 586.847656 531.339844 C 585.945312 531.683594 585.5 533.265625 585.566406 534.746094 C 585.648438 536.164062 586.15625 537.21875 586.847656 537.480469 L 586.847656 538.371094 L 577.863281 538.371094 L 577.945312 537.414062 L 582.460938 537.429688 C 583.332031 537.429688 583.988281 536.277344 584.070312 534.648438 C 584.152344 533.035156 583.613281 531.304688 582.5625 531.191406 L 576.746094 530.5 L 576.617188 530.5 L 576.105469 530.515625 L 576.105469 514.953125 Z M 586.847656 514.179688 L 582.214844 514.179688 L 582.214844 514.195312 L 576.105469 514.195312 L 576.105469 503.886719 L 586.847656 503.886719 Z M 589.375 537.546875 L 589.375 538.371094 L 587.601562 538.371094 L 587.601562 537.546875 Z M 591.019531 538.371094 L 590.132812 538.371094 L 590.132812 537.546875 L 590.953125 537.546875 Z M 587.191406 536.789062 C 586.878906 536.789062 586.402344 536 586.339844 534.699219 C 586.273438 533.578125 586.550781 532.703125 586.847656 532.292969 L 586.847656 532.640625 C 587.078125 532.425781 587.324219 532.242188 587.601562 532.0625 L 587.601562 531.980469 L 592.988281 531.355469 C 592.988281 531.089844 592.988281 530.84375 592.988281 530.582031 L 590.132812 530.925781 L 590.132812 518.9375 L 593.007812 518.9375 L 593.007812 549.253906 L 592.300781 545.21875 L 591.707031 537.53125 L 592.988281 537.53125 C 592.988281 537.28125 592.988281 537.019531 592.988281 536.773438 Z M 590.132812 514.179688 L 590.132812 503.886719 L 593.007812 503.886719 L 593.007812 514.179688 Z M 587.601562 514.195312 L 587.601562 503.90625 L 589.375 503.90625 L 589.375 514.195312 Z M 593.007812 514.953125 L 593.007812 518.164062 L 590.132812 518.164062 L 590.132812 518.148438 L 589.375 518.148438 L 589.375 531.007812 L 587.601562 531.207031 L 587.601562 518.164062 L 582.972656 518.164062 L 582.972656 514.953125 Z M 544.949219 564.78125 L 576.140625 564.78125 L 576.171875 564.4375 C 576.1875 564.238281 576.203125 564.023438 576.203125 563.8125 L 576.203125 554.308594 C 576.203125 554.03125 576.140625 553.765625 576.039062 553.503906 L 576.074219 553.023438 C 576.089844 552.8125 576.105469 552.582031 576.105469 552.367188 L 576.105469 552.234375 C 576.140625 552.152344 576.171875 552.070312 576.1875 552.003906 L 577.320312 545.433594 C 577.339844 545.382812 577.339844 545.335938 577.339844 545.285156 L 577.847656 538.714844 C 577.914062 538.847656 577.980469 538.980469 578.042969 539.128906 L 591.066406 539.128906 L 591.527344 545.285156 C 591.542969 545.335938 591.542969 545.382812 591.5625 545.433594 L 591.644531 545.976562 L 577.585938 545.976562 C 577.503906 546.242188 577.421875 546.488281 577.320312 546.75 L 591.789062 546.75 L 592.695312 552.003906 C 592.742188 552.234375 592.859375 552.464844 593.007812 552.664062 C 593.007812 552.695312 593.023438 552.730469 593.023438 552.777344 C 592.742188 553.253906 592.578125 553.765625 592.578125 554.308594 L 592.578125 563.8125 C 592.578125 564.023438 592.59375 564.238281 592.613281 564.4375 L 592.644531 564.78125 L 622.011719 564.78125 L 622.011719 568.765625 L 626.640625 568.765625 L 626.640625 588.199219 L 540.320312 588.199219 L 540.320312 568.765625 L 544.949219 568.765625 Z M 540.320312 553.714844 L 575.480469 553.714844 L 575.480469 554.722656 L 575.433594 554.722656 L 575.433594 563.8125 C 575.433594 563.894531 575.433594 563.960938 575.433594 564.023438 L 544.949219 564.023438 L 544.949219 564.007812 L 540.320312 564.007812 Z M 533.535156 481.261719 L 534.078125 481.246094 L 539.910156 481.921875 C 539.941406 481.9375 539.992188 481.953125 540.058594 481.988281 L 533.535156 481.988281 Z M 553.210938 481.507812 L 553.210938 481.988281 L 549.105469 481.988281 Z M 547.28125 481.445312 C 546.953125 481.476562 546.675781 481.691406 546.445312 481.988281 L 541.007812 481.988281 C 540.746094 481.527344 540.417969 481.214844 539.992188 481.164062 L 534.160156 480.488281 L 534.046875 480.488281 L 533.535156 480.503906 L 533.535156 452.214844 C 533.535156 451.09375 533.4375 449.992188 533.273438 448.921875 L 553.492188 448.921875 C 553.308594 450.058594 553.210938 451.210938 553.210938 452.414062 L 553.210938 480.753906 Z M 539.5625 553.734375 L 539.5625 564.023438 L 537.789062 564.023438 L 537.789062 553.734375 Z M 504.171875 552.960938 C 504.15625 552.761719 504.15625 552.5625 504.15625 552.367188 L 504.15625 514.773438 L 504.335938 514.773438 L 504.335938 514.015625 L 504.15625 514.015625 L 504.15625 503.707031 L 504.335938 503.707031 L 504.335938 502.933594 L 504.15625 502.933594 L 504.15625 502.242188 C 504.15625 491.488281 512.25 482.761719 522.203125 482.761719 L 557.285156 482.761719 C 567.238281 482.761719 575.335938 491.488281 575.335938 502.242188 L 575.335938 552.367188 C 575.335938 552.5625 575.335938 552.761719 575.316406 552.960938 Z M 629.171875 553.734375 L 629.171875 564.007812 L 627.398438 564.007812 L 627.398438 553.734375 Z M 625.917969 482.761719 L 632.832031 482.761719 C 632.847656 482.792969 632.867188 482.828125 632.882812 482.875 L 633.671875 482.875 C 633.671875 482.828125 633.652344 482.792969 633.636719 482.761719 L 646.890625 482.761719 C 656.84375 482.761719 664.957031 491.488281 664.957031 502.242188 L 664.957031 552.019531 L 664.890625 552.070312 C 664.90625 552.101562 664.941406 552.136719 664.941406 552.136719 L 664.957031 552.234375 C 664.925781 552.21875 664.90625 552.183594 664.90625 552.183594 C 664.90625 552.285156 664.925781 552.398438 664.925781 552.53125 L 664.925781 552.597656 C 664.925781 552.710938 664.925781 552.84375 664.90625 552.960938 L 593.777344 552.960938 C 593.777344 552.761719 593.761719 552.5625 593.761719 552.367188 L 593.761719 502.242188 C 593.761719 491.488281 601.859375 482.761719 611.828125 482.761719 L 625.164062 482.761719 L 625.164062 482.875 L 625.917969 482.875 Z M 625.917969 481.460938 L 626.476562 481.445312 L 631.304688 481.988281 L 625.917969 481.988281 Z M 323.070312 536.773438 L 317.257812 536.789062 C 316.945312 536.789062 316.46875 536 316.402344 534.699219 C 316.320312 533.167969 316.863281 532.0625 317.238281 532.03125 L 323.070312 531.339844 Z M 323.070312 549.253906 L 322.363281 545.21875 L 321.789062 537.53125 L 323.070312 537.53125 Z M 143.332031 536.773438 L 137.519531 536.789062 C 137.207031 536.789062 136.730469 536 136.664062 534.699219 C 136.582031 533.167969 137.109375 532.0625 137.5 532.03125 L 143.332031 531.339844 Z M 143.332031 549.253906 L 142.625 545.21875 L 142.035156 537.53125 L 143.332031 537.53125 Z M 672.183594 531.191406 L 666.351562 530.5 L 666.238281 530.5 L 665.710938 530.515625 L 665.710938 502.242188 C 665.710938 491.078125 657.269531 481.988281 646.890625 481.988281 L 633.292969 481.988281 C 633.046875 481.640625 632.75 481.394531 632.390625 481.363281 L 626.558594 480.667969 L 626.445312 480.667969 L 625.917969 480.6875 L 625.917969 452.414062 C 625.917969 449.515625 625.34375 446.765625 624.34375 444.277344 C 634.671875 438.003906 641.703125 425.984375 641.703125 412.199219 L 642.933594 236.003906 L 642.964844 227.984375 L 642.964844 227.902344 C 642.964844 211.402344 633.242188 201.261719 615.457031 199.316406 L 608.691406 199.316406 L 197.695312 199.332031 C 174.898438 201.851562 171.695312 219.273438 171.582031 235.988281 L 171.582031 412.199219 C 171.582031 426.527344 179.167969 438.925781 190.171875 444.96875 C 189.417969 447.175781 188.988281 449.546875 188.988281 452.015625 L 188.988281 480.390625 L 183.078125 481.066406 C 182.617188 481.113281 182.273438 481.476562 182.007812 481.988281 L 162.152344 481.988281 C 151.773438 481.988281 143.332031 491.078125 143.332031 502.242188 L 143.332031 530.582031 L 137.402344 531.273438 C 136.351562 531.386719 135.828125 533.132812 135.910156 534.746094 C 135.992188 536.394531 136.648438 537.546875 137.519531 537.546875 L 141.277344 537.546875 L 141.871094 545.285156 C 141.871094 545.335938 141.871094 545.382812 141.886719 545.433594 L 143.035156 552.003906 C 143.070312 552.203125 143.199219 552.367188 143.332031 552.53125 C 143.332031 552.628906 143.347656 552.730469 143.347656 552.84375 C 143.085938 553.304688 142.921875 553.800781 142.921875 554.308594 L 142.921875 563.8125 C 142.921875 564.023438 142.9375 564.238281 142.953125 564.4375 L 142.972656 564.78125 L 172.335938 564.78125 L 172.335938 568.765625 L 176.96875 568.765625 L 176.96875 588.199219 L 140.785156 588.199219 L 140.785156 596.578125 L 307.089844 596.578125 L 307.089844 588.199219 L 269.875 588.199219 L 269.875 568.765625 L 274.507812 568.765625 L 274.507812 564.78125 L 305.695312 564.78125 L 305.726562 564.4375 C 305.742188 564.238281 305.761719 564.023438 305.761719 563.8125 L 305.761719 554.308594 C 305.761719 554.03125 305.695312 553.765625 305.613281 553.503906 L 305.628906 553.042969 C 305.644531 552.8125 305.660156 552.582031 305.660156 552.367188 L 305.660156 552.269531 C 305.695312 552.167969 305.726562 552.085938 305.742188 552.003906 L 306.730469 546.355469 L 321.707031 546.355469 C 321.640625 546.109375 321.574219 545.863281 321.527344 545.597656 L 306.859375 545.597656 L 306.894531 545.433594 C 306.894531 545.382812 306.910156 545.335938 306.910156 545.285156 L 307.402344 538.75 L 321.035156 538.75 C 321.035156 538.5 321.035156 538.253906 321.050781 537.992188 L 315.546875 537.992188 L 315.546875 518.558594 L 320.179688 518.558594 L 320.179688 514.589844 L 323.070312 514.589844 L 323.070312 530.582031 L 317.15625 531.273438 C 316.105469 531.386719 315.566406 533.132812 315.648438 534.746094 C 315.730469 536.394531 316.402344 537.546875 317.257812 537.546875 L 321.015625 537.546875 L 321.609375 545.285156 C 321.609375 545.335938 321.625 545.382812 321.625 545.433594 L 322.773438 552.003906 C 322.808594 552.203125 322.957031 552.367188 323.085938 552.53125 C 323.085938 552.628906 323.085938 552.730469 323.085938 552.84375 C 322.824219 553.304688 322.660156 553.800781 322.660156 554.308594 L 322.660156 563.8125 C 322.660156 564.023438 322.675781 564.238281 322.691406 564.4375 L 322.726562 564.78125 L 352.074219 564.78125 L 352.074219 568.765625 L 356.707031 568.765625 L 356.707031 588.199219 L 320.542969 588.199219 L 320.542969 596.578125 L 486.828125 596.578125 L 486.828125 588.199219 L 449.628906 588.199219 L 449.628906 568.765625 L 454.246094 568.765625 L 454.246094 564.78125 L 485.433594 564.78125 L 485.464844 564.4375 C 485.480469 564.238281 485.5 564.023438 485.5 563.8125 L 485.5 554.308594 C 485.5 554.03125 485.449219 553.765625 485.351562 553.503906 L 485.382812 553.042969 C 485.398438 552.8125 485.417969 552.582031 485.417969 552.367188 L 485.417969 552.269531 C 485.449219 552.167969 485.480469 552.085938 485.5 552.003906 L 486.433594 546.554688 L 501.972656 546.554688 C 501.871094 546.355469 501.804688 546.125 501.804688 545.863281 C 501.804688 545.863281 501.804688 545.8125 501.804688 545.796875 L 486.566406 545.796875 L 486.632812 545.433594 C 486.648438 545.382812 486.648438 545.335938 486.648438 545.285156 L 487.140625 538.945312 L 501.445312 538.945312 L 501.921875 545.285156 C 501.921875 545.335938 501.9375 545.382812 501.9375 545.433594 L 503.085938 552.003906 C 503.121094 552.203125 503.269531 552.367188 503.382812 552.53125 C 503.382812 552.628906 503.398438 552.730469 503.398438 552.84375 C 503.136719 553.304688 502.972656 553.800781 502.972656 554.308594 L 502.972656 563.8125 C 502.972656 564.023438 502.988281 564.238281 503.003906 564.4375 L 503.039062 564.78125 L 532.386719 564.78125 L 532.386719 568.765625 L 537.019531 568.765625 L 537.019531 588.199219 L 500.835938 588.199219 L 500.835938 596.578125 L 667.140625 596.578125 L 667.140625 588.199219 L 629.941406 588.199219 L 629.941406 568.765625 L 634.558594 568.765625 L 634.558594 564.78125 L 665.746094 564.78125 L 665.777344 564.4375 C 665.792969 564.238281 665.8125 564.023438 665.8125 563.8125 L 665.8125 554.308594 C 665.8125 554.03125 665.746094 553.765625 665.664062 553.503906 L 665.695312 553.042969 C 665.710938 552.8125 665.710938 552.582031 665.710938 552.367188 L 665.710938 552.269531 C 665.746094 552.167969 665.777344 552.085938 665.792969 552.003906 L 666.945312 545.433594 C 666.960938 545.382812 666.960938 545.335938 666.960938 545.285156 L 667.550781 537.414062 L 672.070312 537.429688 C 672.9375 537.429688 673.613281 536.277344 673.695312 534.648438 C 673.777344 533.035156 673.234375 531.304688 672.183594 531.191406 "/>
</g>
</g>
</svg>
